<svg xmlns="http://www.w3.org/2000/svg" version="1" width="187.194" height="85.565" viewBox="0 0 192.756 192.756" overflow="visible"><path clip-rule="evenodd" d="M35.082 154.826c.02-.052-.378-.818-.506-1.136-.147-.36-.136-1.275-.088-1.482.054-.246-.04-.255-.138-.54-.034-.093.072-.706.05-1.003-.01-.138-.514-1.136-.552-1.338-.038-.194.031-.67 0-1.003a1.934 1.934 0 0 0-.126-.502l-2.109-6.375-.883-2.852c-.074-.235-1.446-2.474-1.527-2.72-1.503-4.557-6.209-12.148-11.018-15.178-.158-.102-1.465-1.685-1.674-1.843-.275-.203-1.09-.572-1.214-.692-.368-.347-.64-.998-1.215-.853a.503.503 0 0 0-.292.198c-.122.158-1.541 3.708-1.782 4.14-.257.462-.595.928-.728 1.233a9.07 9.07 0 0 0-.426 1.633c-1.392 5.6-11.872 23.514-14.532 28.528l-9.941 18.723c-1.827 2.904-1.636-.088-2.285-.379-.887-.4-.696.287-1.205.651-.628.453-2.176.753-2.811.73-.095-.004-1.14.568-1.422.651-.329.097-.617.032-.637-.326-.01-.153.121-.586.15-.827.025-.212-.051-.351-.2-.502-.214-.217-.295-.08-.705.124-.385.193-.428.027-.703-.352-.297-.41-3.604-1.162-3.967-1.002-.475.211-1.324 1.007-1.683.527-.14-.19-.085-.66-.148-1.003a.655.655 0 0 0-.568-.554c-.565-.027-1.032.241-1.14 0-.18-.387 0-.608-.227-.775-.106-.083-.847-.272-.953-.351-.291-.216-.286-.503-.604-.656a.567.567 0 0 0-.2-.047c-.717-.06-1.089.149-1.451-.056-.417-.237-.672-.789-.834-1.422-.126-.498-.236-1.746-.3-1.856-.045-.079-.18-.138-.277-.153-.234-.045-.716.175-.955.277-.416.175-12.874 7.159-13.253 7.427-1.326.946-1.802 1.43-1.957 2.935-.435 4.193 1.651 16.439 7.43 18.045.772.216 1.245.009 1.957-.3l57.228-28.006c1.94-.969 18.633-8.83 19.077-8.984.232-.08 1.315-.691 1.344-.754zm-100.985-12.627c.02 0 .002.045-.02.079-.043.06-.12.088-.19.11-.225.061-32.425 17.132-35.07 18.47l-10.653 6.006c-1.26.73-2.005 1.92-2.109 3.37-.284 4.386 2.33 10.455 5.096 14.172.757 1.016 2.482 3.25 3.942 3.638.755.199 1.35 0 2.007-.202.336-.102 33.167-15.483 37.326-17.49a3283.499 3283.499 0 0 1 30.599-13.296c.567-.237.725-.334.853-.831.158-.611.347-1.906.478-2.285.104-.308.516-1.034.802-1.606.23-.457 1.048-2.847 1.604-4.163.191-.453.394-.863.554-1.307.257-.716.498-1.93.728-2.56l11.698-29.18 5.673-13.776c.853-2.708.752-3.444 2.284-6.024.239-.4 2.07-6.177 2.133-6.625.115-.807.874-1.766.086-1.955-.358-.088-1.093.114-1.49.25a39.051 39.051 0 0 0-2.962 1.23c-30.977 14.383-56.741 27.375-86.723 43.734a148.605 148.605 0 0 0-5.83 3.463c-1.404.8-2.172 2.225-2.075 3.836.388 5.213 1.645 9.565 4.091 14.18.872 1.542 1.998 1.39 3.79.929.391-.101 8.607-3.357 11.396-4.514l21.511-7.556c.158-.045.3-.074.47-.097zm112.5-36.084c-.098.392.97 1.43 1.216 1.671.738.717 1.896 1.73 2.212 2.1 3.09 3.712 5.163 7.308 6.83 11.84.018.048 34.17-.55 34.388-.604 16.677-5.692 30.957-9.912 48.05-14.203.746-.273 1.249-.44 1.506-1.057 2.41-5.724-.178-17.044-3.215-21.98-.879-1.428-1.881-1.414-3.638-1.002-3.334.782-24.188 5.242-29.468 6.45-18.772 4.458-34.474 8.85-52.838 14.78-1.275.403-4.933 1.57-5.044 2.005zM17.078 77.746c-.14.367.164.68.351.845.284.248 5.055 3.284 5.497 3.638.324.257.579.496.853.804 1.408 1.575 1.429 2.048 2.686 2.96 1.36.987.759.552 2.032 1.949.407.448 2.356 2.122 2.71 2.519.507.567.545.673 1.106 1.004.18.106 8.738 8.585 8.885 8.784.687.928 1.538 2.667 2.554 2.556.147-.013 21.523-10.412 22.696-11.038a888.507 888.507 0 0 1 15.438-7.202c8.7-3.845 25.125-11.25 26.806-11.944 1.545-.637 2.356-1.097 2.26-2.624-.278-4.38-5.466-17.391-9.791-19.984-1.059-.638-2.188-.208-3.514.175-11.201 3.23-79.567 24.886-80.57 27.558zm69.728-36.713l.854-2.426a.738.738 0 0 0 .054-.191c.061-.537-.248-.516-.482-.854-.19-.275-.223-1.417-.25-1.505a.94.94 0 0 0-.2-.351c-.428-.51-1.082-.974-1.255-1.357-.07-.15-.234-2.412-.302-2.559-.072-.155-.358-.461-.538-.712a.91.91 0 0 1-.113-.191c-.092-.216-.167-.82-.223-.892-.07-.09-.322-.183-.379-.264-.04-.056-.072-.274-.06-.43.04-.55.133-.813-.19-1.126-.513-.494-.77-.41-.952-1.003-.35-1.13-2.226-1.7-3.542-1.505-.24.036-1.64.642-2.158.778a8.313 8.313 0 0 1-1.475.126c-1.404-.048-1.413-.059-3.044.626-.38.16-12.1 3.49-13.956 3.965C9.586 45.275-30.479 61.979-74.997 86.858c-.712.435-2.07 1.24-2.58 1.893-.509.657-.612 1.158-1.079 1.48-.166.115-.736.313-1.155.502-.167.074-1.499 1.154-1.582 1.28-.108.166-.281.62-.05.953.06.085.176.141.278.175.191.066.416.08.601.151.214.081.421.248.604.302.536.153.622-.016.878.327.17.225.539 1.295.83 1.48.286.184.691.175.828.376.02.034.036.063.05.1.081.19.464 2.79.464 3.14 0 .236-.142 1.648.216 1.905.304.216 1.064.04 1.406-.052 1.44-.387 1.365-.968 3.111-2.155l4.319-2.436c.259-.17.865-.39.952-.475.1-.115.174-.22.253-.351.281-.401.676-.51 1.304-.703.568-.174.593-.012 1.205.453 1.262.955 2.294 1.633 3.765.551a18.633 18.633 0 0 1 1.932-1.079C-12.47 72.865 28.315 58.472 77.8 46.598c.9-.17 8.38-1.987 8.56-2.082 1.077-.57.798-1.78.44-3.192-.037-.133-.034-.162.008-.29zM-9.828 23.51c0 4.177 1.76 11.775 5.774 14.503.455.309.973.469 1.23.852.376.563.227.734.727.879.773.22.865-.012 2.28.024.214.005 1.194.162 1.487.1.48-.102.764-.38 1.153-.127.241.156.171.25.327.527.252.453 1.586.386 1.953.352 1.385-.133 2.573-.489 3.244-1.606.198-.33 1.03-1.697 2.012-2.122.52-.226.62-.133.842-.323.453-.385.96-1.437 1.129-1.676.146-.207 1.25-1.18 1.915-1.8 3.29-3.07 7.71-12.592 6.704-17.927-.216-1.142-1.048-4.915-1.683-5.861-.27-.404-.75-.81-.903-1.255-.045-.13-.061-.266-.102-.401C17.65 5.472 13.774.689 11.58.67c-.226-.002-.424.034-.622 0-.187-.03-.921-.403-1.154-.45-.23-.048-1.243.002-1.455.126a9.96 9.96 0 0 1-2.51.977c-.423.106-.585.063-.891.293-.284.212-.55.554-.811.744-.15.106-.863.351-1.31.547-3.948 1.732-8.45 7.017-9.913 10.865-.512 1.33-2.742 8.452-2.742 9.736z" fill="#ee342a" fill-rule="evenodd"/><path stroke-miterlimit="2.613" d="M69.77 151.417l9.678-18.544c-.334 1.491-.66 2.83-.958 4.039l-.547 2.221-2.949 10.908a60.466 60.466 0 0 1-1.435 4.607h4.686c.349-1.694.673-3.15.95-4.28.16-.647.332-1.215.44-1.654l4.19-15.276c.29-1.047.772-2.868 1.56-5.535h-7.381a87.013 87.013 0 0 1-1.688 3.436l-9.348 17.616 1.04-18.387c.027-.24.077-1.13.217-2.667h-7.72c-3.36 11.757-6.227 20.689-8.491 26.747h4.618c.876-3.15 1.561-5.535 2.059-7.15l4.852-15.234-1.05 19.518c-.04.845-.141 1.818-.265 2.863h5.934a57.448 57.448 0 0 1 1.608-3.228zm12.165 3.228h16.584l1.47-5.294c-2.533.287-5.394.406-8.595.406-1.18 0-2.214-.04-3.15-.079l.14-.568c.289-1.171.624-2.261.949-3.313l.853-2.785h7.383c1.045 0 2.124 0 3.174.12l1.374-5.051c-1.255.162-2.5.162-3.782.162h-6.808l.737-2.586c.385-1.293.7-2.3 1.047-3.028h7.619c.507 0 1.843.041 3.94.158l1.367-4.888H89.648c-2.892 11.234-5.49 20.164-7.713 26.746zm19.515 0h10.25c7.25 0 13.057-5.535 15.242-14.422 1.172-4.769.705-8.364-1.14-10.464-1.552-1.777-3.69-1.86-6.521-1.86h-10.115c-2.992 11.637-5.623 20.565-7.716 26.746zm6.547-4.685l.376-1.537c.347-1.412.707-2.746 1.079-4.118l3.316-11.716h4.111c2.26 0 3.81 0 4.668 1.171.93 1.293 1.05 3.555.275 6.707-.865 3.516-2.53 6.181-4.835 7.88-2.174 1.574-4.104 1.615-6.603 1.615h-2.387v-.002zm17.972 4.685h16.587l1.466-5.294c-2.53.287-5.393.406-8.592.406-1.18 0-2.214-.04-3.149-.079l.14-.568c.288-1.171.624-2.261.948-3.313l.854-2.785h7.382c1.045 0 2.124 0 3.172.12l1.374-5.051c-1.252.162-2.498.162-3.782.162h-6.808l.737-2.586c.385-1.293.7-2.3 1.047-3.028h7.619c.507 0 1.843.041 3.938.158l1.367-4.888h-16.584c-2.895 11.234-5.493 20.164-7.716 26.746zm43.883-21.655l1.048-5.091c-2.158-.406-3.93-.604-5.312-.604-8.833 0-14.787 5.17-17.1 14.586-2.132 8.685.93 13.373 9.055 13.373 1.956 0 3.98-.282 6.049-.609l1.865-5.535c-2.183.647-4.15.974-5.902.974-5.427 0-7.572-3.07-6.152-8.85 1.468-5.982 5.32-9.454 10.513-9.454 2.357 0 4.328.484 5.936 1.21zm10.077-5.091h-5.227c-3.012 11.716-5.643 20.648-7.747 26.746h5.294c.345-1.531.671-2.863.93-3.915.199-.809.356-1.455.528-2.018l4.415-15.233c.502-1.778 1.126-3.638 1.807-5.58zm9.731 26.746h7.786c.268-1.09.484-2.1.691-2.948a75.01 75.01 0 0 1 .802-2.988l4.38-15.233c.504-1.777 1.128-3.638 1.809-5.58h-4.62c-.13.528-.226 1.052-.343 1.537a112.88 112.88 0 0 1-1.295 4.73l-4.576 16.162-2.784-22.426h-7.418c-3.438 12.363-5.968 21.295-7.883 26.746h4.62c.638-2.464 1.357-5.248 2.247-8.319l4.084-14.305 1.831 15.193c.298 2.626.613 5.052.67 7.431zm18.412-13.854l3.755 4.888c.633.85.854 1.737.676 2.465-.396 1.615-1.969 2.667-4.262 2.667-1.584 0-3.674-.687-6.04-2.183l-.998 5.175c1.116.804 3.35 1.453 6.283 1.453 5.022 0 8.671-2.908 9.694-7.071.624-2.544-.036-4.524-1.77-6.79l-4.1-5.411c-.352-.485-.438-1.09-.28-1.737.405-1.654 1.944-2.706 4.406-2.706 1.415 0 2.848.485 4.512 1.25l.901-4.764c-1.89-.405-3.685-.646-5.438-.646-4.922 0-8.044 2.423-9.058 6.541-.673 2.747-.04 4.562 1.719 6.87zM28.43 174.785l3.749 4.843c.633.845.851 1.726.673 2.447-.396 1.601-1.966 2.644-4.253 2.644-1.581 0-3.667-.682-6.026-2.165l-.998 5.125c1.115.8 3.345 1.444 6.272 1.444 5.012 0 8.652-2.88 9.673-7.008.624-2.525-.036-4.487-1.769-6.731l-4.088-5.368c-.352-.48-.44-1.082-.282-1.721.406-1.645 1.942-2.688 4.398-2.688 1.412 0 2.842.485 4.505 1.246l.899-4.73c-1.886-.402-3.679-.638-5.427-.638-4.913 0-8.029 2.401-9.04 6.49-.672 2.721-.04 4.526 1.714 6.81zm6.727 13.74h5.116c.766-1.607 1.462-2.927 2.167-4.008l4.093-6.49h7.738l.433 7.368c.04.523-.05 1.566-.2 3.13h5.383l-1.216-22.035c-.081-1.444-.075-2.964-.036-4.487h-6.73c-.693 1.444-1.297 2.525-1.779 3.246l-14.97 23.275zm18.788-22.918l.378 8.135h-5.35l4.972-8.135zm20.022 22.917h7.772c.268-1.081.482-2.086.69-2.926.308-1.241.578-2.206.799-2.965l4.372-15.1c.503-1.764 1.127-3.609 1.805-5.53h-4.61c-.128.518-.222 1.043-.342 1.523-.416 1.685-.86 3.203-1.293 4.685l-4.566 16.024-2.782-22.232h-7.403c-3.433 12.257-5.958 21.11-7.866 26.521h4.609c.637-2.446 1.354-5.21 2.241-8.254l4.078-14.18 1.829 15.06c.297 2.604.61 5.008.667 7.373zm18.375-13.74l3.749 4.844c.633.845.851 1.726.673 2.447-.396 1.601-1.966 2.644-4.253 2.644-1.581 0-3.665-.682-6.026-2.165l-.998 5.125c1.115.8 3.343 1.444 6.272 1.444 5.012 0 8.653-2.88 9.67-7.008.625-2.525-.035-4.487-1.768-6.731l-4.088-5.368c-.352-.48-.44-1.082-.282-1.721.406-1.645 1.942-2.688 4.398-2.688 1.412 0 2.842.485 4.503 1.246l.899-4.73c-1.886-.402-3.677-.638-5.427-.638-4.911 0-8.029 2.401-9.04 6.49-.67 2.721-.039 4.526 1.718 6.81zm19.518 13.74h5.082c.214-1.002.45-1.966.69-2.926a117.39 117.39 0 0 1 1.615-5.848l.851-2.769h6.056c1.043 0 2.086 0 3.133.124l1.406-5.012c-1.075.124-2.327.162-3.776.162h-5.483l.735-2.566c.383-1.28.698-2.284 1.045-3.005h6.258c.505 0 1.838.04 3.929.162l1.4-4.848h-15.243c-2.884 11.14-5.479 19.998-7.698 26.526zm17.794 0h5.215c1.28-4.769 1.978-7.454 2.17-8.096l2.881-10.295c.37-1.36.811-2.6 1.3-3.762a37.668 37.668 0 0 1 2.888-.124c3.131 0 4.357.48 3.703 3.124-.673 2.724-2.667 4.127-5.999 4.127-.637 0-1.268-.04-1.912-.157l1.665 15.183h5.282a228.433 228.433 0 0 1-1.597-11.78c3.866-1.482 6.292-4.086 7.182-7.69.784-3.167.261-5.411-1.183-6.37-.953-.643-2.289-.683-3.972-.683h-9.925c-2.983 11.538-5.61 20.396-7.698 26.523zm32.214.559c7.874 0 14.008-5.488 16.195-14.343 2.1-8.493-1.187-13.296-9.362-13.296-7.873 0-14.008 5.488-16.206 14.38-2.088 8.456 1.232 13.259 9.373 13.259zm-4.316-13.3c1.546-6.247 5.114-9.653 10.025-9.653 4.91 0 6.783 3.045 5.397 8.655-1.554 6.287-5.145 9.653-10.19 9.653-4.646 0-6.588-3.163-5.232-8.655zm33.127 12.741h7.772c.265-1.081.48-2.086.689-2.926.309-1.241.579-2.206.8-2.965l4.37-15.1c.505-1.764 1.126-3.609 1.804-5.53h-4.609c-.13.518-.225 1.043-.342 1.523a110.259 110.259 0 0 1-1.293 4.685l-4.564 16.024-2.78-22.232h-7.403c-3.433 12.257-5.96 21.11-7.866 26.521h4.609c.637-2.446 1.356-5.21 2.241-8.254l4.078-14.18 1.83 15.061c.294 2.604.61 5.008.664 7.373zm27.147-22.275c.683-.04 1.356-.04 2.062-.04 1.513 0 3.01.078 4.516.24l1.302-4.448h-17.73l-1.337 4.449a53.086 53.086 0 0 1 4.938-.241c.536 0 1.077 0 1.604.04a303.9 303.9 0 0 1-6.817 22.277h5.25c.152-.761.35-1.56.56-2.405.417-1.681.924-3.605 1.55-5.73l4.102-14.142zm15.139-4.246h-5.215c-3.006 11.62-5.632 20.473-7.734 26.521h5.283c.342-1.523.67-2.847.928-3.89.198-.8.356-1.44.527-2.003l4.406-15.1c.505-1.762 1.127-3.607 1.805-5.528zm-3.747 26.521h16.556l1.464-5.249c-2.525.282-5.382.401-8.578.401-1.176 0-2.21-.04-3.145-.079l.14-.563a55.84 55.84 0 0 1 .946-3.282l.853-2.769h7.37c1.042 0 2.119 0 3.166.124l1.37-5.012c-1.25.162-2.494.162-3.773.162h-6.799l.734-2.566c.386-1.28.701-2.284 1.048-3.005h7.603c.504 0 1.84.04 3.929.162l1.365-4.847h-16.553c-2.882 11.137-5.477 19.995-7.696 26.523zm19.446 0h5.215c1.277-4.769 1.976-7.454 2.17-8.096l2.878-10.295c.372-1.36.811-2.6 1.302-3.762a37.668 37.668 0 0 1 2.889-.124c3.129 0 4.356.48 3.703 3.124-.674 2.724-2.67 4.127-5.999 4.127-.638 0-1.268-.04-1.913-.157l1.663 15.183h5.283a228.382 228.382 0 0 1-1.595-11.78c3.865-1.482 6.292-4.086 7.181-7.69.782-3.167.26-5.411-1.185-6.37-.95-.643-2.288-.683-3.969-.683h-9.925c-2.985 11.538-5.612 20.396-7.698 26.523zm19.833 0h16.555l1.465-5.249c-2.526.282-5.382.401-8.579.401-1.176 0-2.21-.04-3.145-.079l.14-.563a54.64 54.64 0 0 1 .948-3.282l.852-2.769h7.369c1.043 0 2.12 0 3.167.124l1.37-5.012c-1.25.162-2.494.162-3.774.162h-6.796l.732-2.566c.385-1.28.7-2.284 1.048-3.005h7.603c.504 0 1.84.04 3.93.162l1.366-4.847h-16.556c-2.88 11.137-5.474 19.995-7.695 26.523zm26.242-13.74l3.749 4.844c.633.845.851 1.726.673 2.447-.396 1.601-1.966 2.644-4.253 2.644-1.581 0-3.667-.682-6.028-2.165l-.998 5.125c1.115.8 3.345 1.444 6.271 1.444 5.015 0 8.655-2.88 9.674-7.008.624-2.525-.036-4.487-1.767-6.731l-4.088-5.368c-.352-.48-.44-1.082-.282-1.721.406-1.645 1.942-2.688 4.398-2.688 1.412 0 2.842.485 4.503 1.246l.899-4.73c-1.886-.402-3.677-.638-5.427-.638-4.911 0-8.027 2.401-9.038 6.49-.674 2.721-.045 4.526 1.714 6.81z" fill="none" stroke="#fff" stroke-width=".487"/><path clip-rule="evenodd" d="M35.157 188.524h5.116c.766-1.606 1.462-2.926 2.167-4.007l4.093-6.49h7.738l.433 7.368c.04.523-.05 1.566-.2 3.13h5.383l-1.216-22.035c-.081-1.444-.075-2.964-.036-4.487h-6.73c-.693 1.444-1.297 2.525-1.779 3.246l-14.97 23.275zm18.788-22.917l.378 8.135h-5.35l4.972-8.135zm15.825-14.19l9.678-18.544c-.334 1.491-.66 2.83-.958 4.039l-.547 2.221-2.949 10.908a60.466 60.466 0 0 1-1.435 4.607h4.686c.349-1.694.673-3.15.95-4.28.16-.647.332-1.215.44-1.654l4.19-15.276c.29-1.047.772-2.868 1.56-5.535h-7.381a87.013 87.013 0 0 1-1.688 3.436l-9.348 17.616 1.04-18.387c.027-.24.077-1.13.217-2.667h-7.72c-3.36 11.757-6.227 20.689-8.491 26.747h4.618c.876-3.15 1.561-5.535 2.059-7.15l4.852-15.234-1.05 19.518c-.04.845-.141 1.818-.265 2.863h5.934a57.448 57.448 0 0 1 1.608-3.228zm12.165 3.228h16.584l1.47-5.294c-2.533.287-5.394.406-8.595.406-1.18 0-2.214-.04-3.15-.079l.14-.568c.289-1.171.624-2.261.949-3.313l.853-2.785h7.383c1.045 0 2.124 0 3.174.12l1.374-5.051c-1.255.162-2.5.162-3.782.162h-6.808l.737-2.586c.385-1.293.7-2.3 1.047-3.028h7.619c.507 0 1.843.041 3.94.158l1.367-4.888H89.648c-2.892 11.234-5.49 20.164-7.713 26.746zm19.515 0h10.25c7.25 0 13.057-5.535 15.242-14.422 1.172-4.769.705-8.364-1.14-10.464-1.552-1.777-3.69-1.86-6.521-1.86h-10.115c-2.992 11.637-5.623 20.565-7.716 26.746zm6.547-4.685l.376-1.537c.347-1.412.707-2.746 1.079-4.118l3.316-11.716h4.111c2.26 0 3.81 0 4.668 1.171.93 1.293 1.05 3.555.275 6.707-.865 3.516-2.53 6.181-4.835 7.88-2.174 1.574-4.104 1.615-6.603 1.615h-2.387v-.002zm17.972 4.685h16.587l1.466-5.294c-2.53.287-5.393.406-8.592.406-1.18 0-2.214-.04-3.149-.079l.14-.568c.288-1.171.624-2.261.948-3.313l.854-2.785h7.382c1.045 0 2.124 0 3.172.12l1.374-5.051c-1.252.162-2.498.162-3.782.162h-6.808l.737-2.586c.385-1.293.7-2.3 1.047-3.028h7.619c.507 0 1.843.041 3.938.158l1.367-4.888h-16.584c-2.895 11.234-5.493 20.164-7.716 26.746zm43.883-21.655l1.048-5.091c-2.158-.406-3.93-.604-5.312-.604-8.833 0-14.787 5.17-17.1 14.586-2.132 8.685.93 13.373 9.055 13.373 1.956 0 3.98-.282 6.049-.609l1.865-5.535c-2.183.647-4.15.974-5.902.974-5.427 0-7.572-3.07-6.152-8.85 1.468-5.982 5.32-9.454 10.513-9.454 2.357 0 4.328.484 5.936 1.21zm10.077-5.091h-5.227c-3.012 11.716-5.643 20.648-7.747 26.746h5.294c.345-1.531.671-2.863.93-3.915.199-.809.356-1.455.528-2.018l4.415-15.233c.502-1.778 1.126-3.638 1.807-5.58zm9.731 26.746h7.786c.268-1.09.484-2.1.691-2.948a75.01 75.01 0 0 1 .802-2.988l4.38-15.233c.504-1.777 1.128-3.638 1.809-5.58h-4.62c-.13.528-.226 1.052-.343 1.537a112.88 112.88 0 0 1-1.295 4.73l-4.576 16.162-2.784-22.426h-7.418c-3.438 12.363-5.968 21.295-7.883 26.746h4.62c.638-2.464 1.357-5.248 2.247-8.319l4.084-14.305 1.831 15.193c.298 2.626.613 5.052.67 7.431zm18.412-13.854l3.755 4.888c.633.85.854 1.737.676 2.465-.396 1.615-1.969 2.667-4.262 2.667-1.584 0-3.674-.687-6.04-2.183l-.998 5.175c1.116.804 3.35 1.453 6.283 1.453 5.022 0 8.671-2.908 9.694-7.071.624-2.544-.036-4.524-1.77-6.79l-4.1-5.411c-.352-.485-.438-1.09-.28-1.737.405-1.654 1.944-2.706 4.406-2.706 1.415 0 2.848.485 4.512 1.25l.901-4.764c-1.89-.405-3.685-.646-5.438-.646-4.922 0-8.044 2.423-9.058 6.541-.673 2.747-.04 4.562 1.719 6.87zM28.43 174.785l3.749 4.843c.633.845.851 1.726.673 2.447-.396 1.601-1.966 2.644-4.253 2.644-1.581 0-3.667-.682-6.026-2.165l-.998 5.125c1.115.8 3.345 1.444 6.272 1.444 5.012 0 8.652-2.88 9.673-7.008.624-2.525-.036-4.487-1.769-6.731l-4.088-5.368c-.352-.48-.44-1.082-.282-1.721.406-1.645 1.942-2.688 4.398-2.688 1.412 0 2.842.485 4.505 1.246l.899-4.73c-1.886-.402-3.679-.638-5.427-.638-4.913 0-8.029 2.401-9.04 6.49-.672 2.721-.04 4.526 1.714 6.81zm45.537 13.74h7.772c.268-1.082.482-2.087.69-2.927.308-1.241.578-2.206.799-2.965l4.372-15.1c.503-1.764 1.127-3.609 1.805-5.53h-4.61c-.128.518-.222 1.043-.342 1.523-.416 1.685-.86 3.203-1.293 4.685l-4.566 16.024-2.782-22.232h-7.403c-3.433 12.257-5.958 21.11-7.866 26.521h4.609c.637-2.446 1.354-5.21 2.241-8.254l4.078-14.18 1.829 15.06c.297 2.604.61 5.008.667 7.373zm18.375-13.74l3.749 4.843c.633.845.851 1.726.673 2.447-.396 1.601-1.966 2.644-4.253 2.644-1.581 0-3.665-.682-6.026-2.165l-.998 5.125c1.115.8 3.343 1.444 6.272 1.444 5.012 0 8.653-2.88 9.67-7.008.625-2.525-.035-4.487-1.768-6.731l-4.088-5.368c-.352-.48-.44-1.082-.282-1.721.406-1.645 1.942-2.688 4.398-2.688 1.412 0 2.842.485 4.503 1.246l.899-4.73c-1.886-.402-3.677-.638-5.427-.638-4.911 0-8.029 2.401-9.04 6.49-.67 2.721-.039 4.526 1.718 6.81zm19.518 13.74h5.082c.214-1.003.45-1.967.69-2.927a117.39 117.39 0 0 1 1.615-5.848l.851-2.769h6.056c1.043 0 2.086 0 3.133.124l1.406-5.012c-1.075.124-2.327.162-3.776.162h-5.483l.735-2.566c.383-1.28.698-2.284 1.045-3.005h6.258c.505 0 1.838.04 3.929.162l1.4-4.848h-15.243c-2.884 11.14-5.479 19.998-7.698 26.526zm17.794 0h5.215c1.28-4.77 1.978-7.455 2.17-8.097l2.881-10.295c.37-1.36.811-2.6 1.3-3.762a37.668 37.668 0 0 1 2.888-.124c3.131 0 4.357.48 3.703 3.124-.673 2.724-2.667 4.127-5.999 4.127-.637 0-1.268-.04-1.912-.157l1.665 15.183h5.282a228.433 228.433 0 0 1-1.597-11.78c3.866-1.482 6.292-4.086 7.182-7.69.784-3.167.261-5.411-1.183-6.37-.953-.643-2.289-.683-3.972-.683h-9.925c-2.983 11.538-5.61 20.396-7.698 26.523zm32.214.558c7.874 0 14.008-5.488 16.195-14.343 2.1-8.493-1.187-13.296-9.362-13.296-7.873 0-14.008 5.488-16.206 14.38-2.088 8.456 1.232 13.259 9.373 13.259zm-4.316-13.3c1.546-6.247 5.114-9.653 10.025-9.653 4.91 0 6.783 3.045 5.397 8.655-1.554 6.287-5.145 9.653-10.19 9.653-4.646 0-6.588-3.163-5.232-8.655zm33.127 12.741h7.772c.265-1.081.48-2.086.689-2.926.309-1.241.579-2.206.8-2.965l4.37-15.1c.505-1.764 1.126-3.609 1.804-5.53h-4.609c-.13.518-.225 1.043-.342 1.523a110.259 110.259 0 0 1-1.293 4.685l-4.564 16.024-2.78-22.232h-7.403c-3.433 12.257-5.96 21.11-7.866 26.521h4.609c.637-2.446 1.356-5.21 2.241-8.254l4.078-14.18 1.83 15.061c.294 2.604.61 5.008.664 7.373zm27.147-22.275c.683-.04 1.356-.04 2.062-.04 1.513 0 3.01.078 4.516.24l1.302-4.448h-17.73l-1.337 4.449a53.086 53.086 0 0 1 4.938-.241c.536 0 1.077 0 1.604.04a303.9 303.9 0 0 1-6.817 22.277h5.25c.152-.761.35-1.56.56-2.405.417-1.681.924-3.605 1.55-5.73l4.102-14.142zm15.139-4.246h-5.215c-3.006 11.62-5.632 20.473-7.734 26.521h5.283c.342-1.523.67-2.847.928-3.89.198-.8.356-1.44.527-2.003l4.406-15.1c.505-1.762 1.127-3.607 1.805-5.528zm-3.747 26.521h16.556l1.464-5.249c-2.525.282-5.382.401-8.578.401-1.176 0-2.21-.04-3.145-.079l.14-.563a55.84 55.84 0 0 1 .946-3.282l.853-2.769h7.37c1.042 0 2.119 0 3.166.124l1.37-5.012c-1.25.162-2.494.162-3.773.162h-6.799l.734-2.566c.386-1.28.701-2.284 1.048-3.005h7.603c.504 0 1.84.04 3.929.162l1.365-4.847h-16.553c-2.882 11.137-5.477 19.995-7.696 26.523zm19.446 0h5.215c1.277-4.769 1.976-7.454 2.17-8.096l2.878-10.295c.372-1.36.811-2.6 1.302-3.762a37.668 37.668 0 0 1 2.889-.124c3.129 0 4.356.48 3.703 3.124-.674 2.724-2.67 4.127-5.999 4.127-.638 0-1.268-.04-1.913-.157l1.663 15.183h5.283a228.382 228.382 0 0 1-1.595-11.78c3.865-1.482 6.292-4.086 7.181-7.69.782-3.167.26-5.411-1.185-6.37-.95-.643-2.288-.683-3.969-.683h-9.925c-2.985 11.538-5.612 20.396-7.698 26.523zm19.833 0h16.555l1.465-5.249c-2.526.282-5.382.401-8.579.401-1.176 0-2.21-.04-3.145-.079l.14-.563a54.64 54.64 0 0 1 .948-3.282l.852-2.769h7.369c1.043 0 2.12 0 3.167.124l1.37-5.012c-1.25.162-2.494.162-3.774.162h-6.796l.732-2.566c.385-1.28.7-2.284 1.048-3.005h7.603c.504 0 1.84.04 3.93.162l1.366-4.847h-16.556c-2.88 11.137-5.474 19.995-7.695 26.523zm26.242-13.74l3.749 4.844c.633.845.851 1.726.673 2.447-.396 1.601-1.966 2.644-4.253 2.644-1.581 0-3.667-.682-6.028-2.165l-.998 5.125c1.115.8 3.345 1.444 6.271 1.444 5.015 0 8.655-2.88 9.674-7.008.624-2.525-.036-4.487-1.767-6.731l-4.088-5.368c-.352-.48-.44-1.082-.282-1.721.406-1.645 1.942-2.688 4.398-2.688 1.412 0 2.842.485 4.503 1.246l.899-4.73c-1.886-.402-3.677-.638-5.427-.638-4.911 0-8.027 2.401-9.038 6.49-.674 2.721-.045 4.526 1.714 6.81z" fill-rule="evenodd"/></svg>