<?xml version="1.0" encoding="utf-8"?>
<svg xmlns="http://www.w3.org/2000/svg">
<symbol id="arrow-test" viewBox="0 0 100 125"><path d="M50 88c-20.987 0-38-17.013-38-38s17.013-38 38-38 38 17.013 38 38-17.013 38-38 38zm14.172-40H32v4h32.172l-18 18h5.656l20-20-20-20h-5.656l18 18z"/><text y="115" font-size="5" font-weight="bold" font-family="&apos;Helvetica Neue&apos;, Helvetica, Arial-Unicode, Arial, Sans-serif">Created by Landan Lloyd</text><text y="120" font-size="5" font-weight="bold" font-family="&apos;Helvetica Neue&apos;, Helvetica, Arial-Unicode, Arial, Sans-serif">from the Noun Project</text>
</symbol>
<symbol id="arrow" viewBox="0 0 100 125"><path d="M21.364 42.218l24.329 24.329c.026.027.034.065.061.091a5.856 5.856 0 0 0 4.17 1.711 5.853 5.853 0 0 0 4.17-1.711c.027-.027.034-.064.061-.091l24.329-24.329c2.285-2.285 2.285-6.024 0-8.308s-6.024-2.285-8.308 0L49.923 54.161 29.672 33.91c-2.285-2.285-6.024-2.285-8.308 0s-2.285 6.024 0 8.308z"/>
</symbol>
<symbol id="bold-effective" viewBox="0 0 150 150"><path d="M0 0h150v150H0z" fill="#00aa75"/><path d="M114.7 92l2.4-.7c.7-.2 1.1-.9.9-1.7l-1.5-5.5c-.2-.7-1-1.1-1.7-.9l-2.4.6c-.7.2-1.6-.2-2-.8l-5.3-6.7c-.5-.5-.7-1.5-.3-2.1l1.2-2.1c.4-.6.1-1.5-.5-1.8l-5-2.8c-.6-.4-1.5-.1-1.9.5l-1.3 2.2c-.4.7-1.3 1-2 .9l-7.4-.8c-.7 0-1.5-.6-1.7-1.3l-.7-2.5c-.2-.7-.9-1.1-1.7-.9l-5.5 1.5c-.7.2-1.1.9-.9 1.7l.7 2.5c.2.7-.2 1.6-.8 2l-6.8 5.4c-.5.5-1.5.7-2.1.3l-2.2-1.3c-.6-.4-1.5-.1-1.9.5l-2.8 5c-.4.7-.1 1.5.5 1.9l2.4 1.4c.7.4 1.1 1.3.9 2l-.8 7.3c0 .7-.6 1.5-1.3 1.7l-2.5.5c-.7.2-1.1.9-.9 1.7l1.5 5.5c.2.7.9 1.2 1.7 1l2.6-.7c.7-.2 1.6.2 2 .8l5.3 6.7c.5.5.7 1.5.3 2.1l-1.3 2.3c-.4.6-.1 1.5.5 1.8l5 2.8c.7.4 1.5.1 1.8-.5l1.4-2.4c.4-.7 1.3-1 2-.9l7.4.8c.7 0 1.5.6 1.7 1.3l.7 2.6c.2.7 1 1.1 1.7.9l5.5-1.5c.7-.2 1.2-.9 1-1.7l-.7-2.6c-.2-.7.2-1.6.8-2l6.6-5.2c.5-.5 1.5-.7 2.1-.3l2.2 1.2c.7.4 1.5.1 1.9-.5l2.8-5c.4-.6.1-1.5-.5-1.8l-2.3-1.3c-.6-.4-1-1.3-.9-2l.9-7.5c-.1-.6.5-1.4 1.2-1.6zm-27 16.9c-7.8-.7-13.7-7.5-13-15.4.7-7.8 7.5-13.7 15.4-13 7.8.7 13.7 7.5 13 15.4-.6 7.8-7.5 13.7-15.4 13z" fill="#fff"/><path d="M77.1 56.2l-1.9-.2c-.6 0-1.2-.6-1.3-1.1l-2.1-6.4c-.2-.5-.1-1.3.4-1.6l1.4-1.2c.4-.4.5-1.1.1-1.5l-2.9-3.4c-.4-.4-1-.5-1.5-.1L67.8 42c-.4.4-1.2.4-1.7.1l-5.2-2.6c-.6-.2-1-.9-.9-1.4l.2-2c0-.6-.4-1.1-1-1.1l-4.5-.4c-.6 0-1.1.4-1.1 1l-.2 2c0 .6-.6 1.2-1.1 1.3L45.9 41c-.5.2-1.3.1-1.6-.4L43 39.1c-.4-.4-1-.5-1.5-.1l-3.4 2.9c-.4.4-.5 1-.1 1.5l1.4 1.6c.4.4.4 1.2.1 1.7l-2.6 5.1c-.2.5-.8 1-1.4.9l-2.1-.2c-.6 0-1.1.4-1.1 1l-.4 4.5c0 .6.4 1.1 1 1.2l2.1.2c.6 0 1.2.5 1.3 1.1l2.1 6.3c.3.5.1 1.3-.3 1.6l-1.6 1.3c-.4.4-.5 1-.1 1.5l2.9 3.4c.4.4 1 .5 1.5.1l1.7-1.4c.4-.4 1.2-.4 1.7-.1l5.2 2.6c.5.2.9.9.9 1.4l-.3 2.1c0 .6.4 1.1 1 1.1l4.5.4c.6 0 1.1-.4 1.1-1l.2-2.1c0-.6.6-1.1 1.1-1.3l6.3-2.1c.5-.2 1.3-.1 1.6.4l1.2 1.5c.4.4 1.1.5 1.5.1l3.4-2.9c.4-.4.5-1 .1-1.5l-1.3-1.6c-.4-.4-.4-1.2-.1-1.7l2.6-5.3c.2-.5.8-.9 1.4-.9l1.9.2c.6 0 1.1-.4 1.1-1l.4-4.5c.2-.4-.3-.9-.9-.9zM54 69c-6.3-.5-10.9-6-10.4-12.3.5-6.3 6-10.9 12.3-10.4 6.3.5 10.9 6 10.4 12.3-.5 6.3-6 11-12.3 10.4z" opacity=".8" fill="#fff"/>
</symbol>
<symbol id="community" viewBox="0 0 60 60"><path d="M51.1 30.7a6.3 6.3 0 0 0 4.1-5.9c0-3.5-2.8-6.3-6.3-6.3s-6.3 2.8-6.3 6.3c0 2.7 1.7 5 4.1 5.9-2.4.2-4.1 1.1-5.3 2.5-1.6-2.8-4.2-4.6-8.4-5 3.3-1.2 5.7-4.4 5.7-8.2 0-4.8-3.9-8.8-8.8-8.8-4.8 0-8.8 3.9-8.8 8.8 0 3.8 2.4 7 5.7 8.2-4.2.4-6.8 2.2-8.4 5-1.2-1.4-2.9-2.3-5.3-2.5a6.3 6.3 0 0 0 4.1-5.9c0-3.5-2.8-6.3-6.3-6.3s-6.3 2.8-6.3 6.3c0 2.7 1.7 5 4.1 5.9-6.9.6-7.7 7-7.7 14.8v.1h15v3.2h28v-3.2h15v-.1c0-7.8-.8-14.2-7.9-14.8z" fill="#fff" opacity=".8"/>
</symbol>
<symbol id="contraceptive-icon" viewBox="0 0 60 60"><style>.st1{fill:#fff}</style><g opacity=".8"><path class="st1" d="M30 1.9c15.5 0 28.1 12.6 28.1 28.1S45.5 58.1 30 58.1 1.9 45.5 1.9 30 14.5 1.9 30 1.9m0-.9C14 1 1 14 1 30s13 29 29 29 29-13 29-29S46 1 30 1z"/><path class="st1" d="M30 3.2C15.2 3.2 3.2 15.2 3.2 30s12 26.8 26.8 26.8 26.8-12 26.8-26.8S44.8 3.2 30 3.2zm25 26.3c0 1-1.3 1.8-3 1.8s-3-.8-3-1.8 1.3-1.8 3-1.8c1.6 0 3 .8 3 1.8zm-.8-5.5c.2 1-.9 2.1-2.5 2.4s-3.1-.1-3.3-1.1c-.2-1 .9-2.1 2.5-2.4s3.1.1 3.3 1.1zm-1.9-5.1c.4.9-.4 2.2-1.9 2.9-1.5.7-3.1.6-3.5-.3-.4-.9.4-2.2 1.9-2.9 1.5-.7 3.1-.6 3.5.3zm-3.1-4.7c.6.8.1 2.2-1.2 3.3-1.3 1-2.8 1.2-3.5.5-.6-.8-.1-2.2 1.2-3.3 1.4-1.1 2.9-1.3 3.5-.5zM45.3 30c0 8.4-6.8 15.3-15.3 15.3S14.7 38.4 14.7 30 21.6 14.7 30 14.7 45.3 21.6 45.3 30zm0-19.8c.8.6.6 2.2-.5 3.5-1 1.3-2.5 1.8-3.3 1.2-.8-.6-.6-2.2.5-3.5 1-1.2 2.5-1.8 3.3-1.2zm-7.6-.8c.7-1.5 2-2.4 2.9-1.9.9.4 1 2 .3 3.5s-2 2.4-2.9 1.9c-.9-.5-1-2.1-.3-3.5zm-4.8-1.2c.4-1.6 1.4-2.7 2.4-2.5 1 .2 1.5 1.7 1.1 3.3S35 11.7 34 11.5c-1-.2-1.5-1.7-1.1-3.3zM30.3 5c1 0 1.8 1.3 1.8 3s-.8 3-1.8 3-1.8-1.3-1.8-3 .8-3 1.8-3zm-5.6.6c1-.2 2.1.9 2.4 2.5.4 1.6-.1 3.1-1.1 3.3s-2-.8-2.4-2.4c-.4-1.6.1-3.1 1.1-3.4zm-5.3 1.8c.9-.4 2.2.4 2.9 1.9.7 1.5.6 3.1-.3 3.5-.9.4-2.2-.4-2.9-1.9-.7-1.5-.6-3.1.3-3.5zm-4.7 2.9c.8-.6 2.2-.1 3.3 1.2 1 1.3 1.2 2.8.5 3.5s-2.2.1-3.3-1.2c-1.1-1.3-1.3-2.8-.5-3.5zm-4.1 4.1c.6-.8 2.2-.6 3.5.5 1.3 1 1.8 2.5 1.2 3.3-.6.8-2.2.6-3.5-.5-1.3-1.1-1.8-2.6-1.2-3.3zm-3.1 4.7c.4-.9 2-1 3.5-.3s2.4 2 1.9 2.9c-.4.9-2 1-3.5.3-1.4-.7-2.3-2-1.9-2.9zm-1.8 5.2c.2-1 1.7-1.5 3.3-1.1 1.6.4 2.7 1.5 2.5 2.4-.2 1-1.7 1.5-3.3 1.1-1.5-.3-2.7-1.4-2.5-2.4zm-.6 6c0-1 1.3-1.8 3-1.8s3 .8 3 1.8-1.3 1.8-3 1.8-3-.8-3-1.8zm.7 5.5c-.2-1 .9-2.1 2.5-2.4 1.6-.4 3.1.1 3.3 1.1.2 1-.9 2.1-2.5 2.4-1.6.4-3.1-.1-3.3-1.1zm2 5.5c-.4-.9.4-2.2 1.9-2.9 1.5-.7 3.1-.6 3.5.3.4.9-.4 2.2-1.9 2.9-1.5.8-3 .6-3.5-.3zm3 4.7c-.6-.8-.1-2.2 1.2-3.3 1.3-1 2.8-1.2 3.5-.5.6.8.1 2.2-1.2 3.3-1.3 1.1-2.9 1.3-3.5.5zm4.3 4c-.8-.6-.6-2.2.5-3.5 1-1.3 2.5-1.8 3.3-1.2.8.6.6 2.2-.5 3.5-1.1 1.3-2.5 1.8-3.3 1.2zm7.8 1c-.7 1.5-2 2.4-2.9 1.9-.9-.4-1-2-.3-3.5s2-2.4 2.9-1.9c.9.4 1 2 .3 3.5zm4.8.9c-.4 1.6-1.5 2.7-2.4 2.5-1-.2-1.5-1.7-1.1-3.3.4-1.6 1.5-2.7 2.4-2.5 1 .2 1.5 1.7 1.1 3.3zm2.7 3.1c-1 0-1.8-1.3-1.8-3s.8-3 1.8-3 1.8 1.3 1.8 3-.8 3-1.8 3zm5.4-.8c-1 .2-2.1-.9-2.4-2.5-.4-1.6.1-3.1 1.1-3.3 1-.2 2.1.9 2.4 2.5.3 1.6-.2 3.1-1.1 3.3zm5.4-2c-.9.4-2.2-.4-2.9-1.9-.7-1.5-.6-3.1.3-3.5.9-.4 2.2.4 2.9 1.9.7 1.5.6 3.1-.3 3.5zm4.6-2.9c-.8.6-2.2.1-3.3-1.2-1-1.3-1.2-2.8-.5-3.5s2.2-.1 3.3 1.2c1.1 1.3 1.3 2.8.5 3.5zm4-4.1c-.6.8-2.2.6-3.5-.5-1.3-1-1.8-2.5-1.2-3.3.6-.8 2.2-.6 3.5.5 1.3 1.1 1.8 2.6 1.2 3.3zm2.8-4.7c-.4.9-2 1-3.5.3s-2.4-2-1.9-2.9c.4-.9 2-1 3.5-.3s2.4 2 1.9 2.9zm1.9-5.3c-.2 1-1.7 1.5-3.3 1.1-1.6-.4-2.7-1.4-2.5-2.4.2-1 1.7-1.5 3.3-1.1 1.6.3 2.7 1.4 2.5 2.4z"/></g>
</symbol>
<symbol id="donate-by-mail" viewBox="0 0 200 200"><style>.st6{fill:#00afdb}.st9{fill:#fff}</style><circle class="st6" cx="100" cy="100" r="98" id="Layer_3"/><g id="Layer_1"><path d="M100 124.1L35.4 75.9v90.7c0 3.8 3.1 7 7 7h115.3c3.8 0 7-3.1 7-7V76L100 124.1z" opacity=".6" fill="#fff"/><g opacity=".4"><path class="st9" d="M99.4 26.5l-64 49.4 64.6 48.8 64.6-48.8z"/><defs><filter id="Adobe_OpacityMaskFilter" filterUnits="userSpaceOnUse" x="35.4" y="26.5" width="129.3" height="98.2"><feColorMatrix values="-1 0 0 0 1 0 -1 0 0 1 0 0 -1 0 1 0 0 0 1 0" color-interpolation-filters="sRGB" result="source"/></filter></defs><mask maskUnits="userSpaceOnUse" x="35.4" y="26.5" width="129.3" height="98.2" id="SVGID_1_"><image width="134" height="103" xlink:href="16F6EBFC9A5C3DBF.jpg" transform="translate(33 24)" overflow="visible" filter="url(#Adobe_OpacityMaskFilter)"/></mask><g opacity=".15" mask="url(#SVGID_1_)"><path d="M99.4 26.5l-64 49.4 64.6 48.8 64.6-48.8z"/></g></g><path class="st9" d="M114.1 59.5C102.3 58.7 100 68 100 68s-2.3-9.3-14.1-8.5c-11.8.8-13.4 15.4-10.6 21.4 2.9 6 5.6 10.4 24.6 25.5C119 91.3 121.7 87 124.5 80.9c3-6 1.3-20.6-10.4-21.4z"/><path class="st6" d="M37.3 171.9c-.1 0-.2 0-.3-.1-.1-.1-.1-.3.1-.4l127.4-95.7c.1-.1.3-.1.4.1.1.1.1.3-.1.4L37.5 171.9h-.2z"/><path class="st6" d="M162.7 171.9c-.1 0-.1 0-.2-.1L35.2 76.2c-.1-.1-.2-.3-.1-.4.1-.1.3-.2.4-.1l127.4 95.7c.1.1.2.3.1.4-.1.1-.2.1-.3.1z"/></g>
</symbol>
<symbol id="email" viewBox="0 0 25 16.7"><path d="M0 0v1.7l12.5 12.5L25 1.7V0v16.7H0z"/><path d="M.8 0h23.4L12.5 11.7z"/>
</symbol>
<symbol id="end-quote" viewBox="0 0 50 50"><path d="M6.8 34.9c2.9-.4 8.3-2.3 8.3-5.9 0-1.5-.3-1.9-1.1-1.9-.5 0-1.1.2-2 .2-3.7 0-7.1-3.1-7.1-7.7 0-4.1 3-7.9 8.5-7.9 6 0 9.1 4.1 9.1 10.2 0 9.4-6.3 15.1-15.3 16.5l-.4-3.5zm22.6 0c2.9-.4 8.3-2.3 8.3-5.9 0-1.5-.3-1.9-1.1-1.9-.5 0-1.1.2-2 .2-3.7 0-7.1-3.1-7.1-7.7 0-4.1 3-7.9 8.5-7.9 6 0 9.1 4.1 9.1 10.2 0 9.4-6.3 15.1-15.3 16.5l-.4-3.5z"/>
</symbol>
<symbol id="ensure-safe-care" viewBox="0 0 150 150"><path d="M0 0h150v150H0z" fill="#00adbf"/><path d="M20.3 58c5.4-12.4 19.8-18 32.2-12.6C63.3 50.1 69 61.8 66.6 72.9L103.3 89l3.6-8.2 9 4-3.6 8.2 5 2.2 5.4-12.3 9 4-5.4 12.3 3.2 1.4-4 9-63-27.6c-6.6 9.3-18.9 13-29.7 8.3-12.3-5.6-17.9-20-12.5-32.3zm8 3.5c3.5-8 12.7-11.6 20.7-8.1 7.9 3.5 11.6 12.7 8.1 20.7-3.5 7.9-12.7 11.6-20.7 8.1s-11.6-12.8-8.1-20.7z" fill-rule="evenodd" clip-rule="evenodd" fill="#fff"/>
</symbol>
<symbol id="fb" viewBox="0 0 12.5 20"><path d="M12.5 6.2h-5V5s0-1.2 1.2-1.2h3.8V0H6.9S3.8 0 3.8 2.5v3.8H0V10h3.8v10h3.8V10h3.8l1.1-3.8z"/>
</symbol>
<symbol id="honorary-gift" viewBox="0 0 200 200"><circle cx="100" cy="100" r="98" fill="#f47b20"/><path d="M143.3 87.2V45c0-4.4-3.5-7.9-7.9-7.9h-.9c-4.4 0-7.9 3.5-7.9 7.9v42.2h-2.2V29.5c0-4.4-3.5-7.9-7.9-7.9h-.9c-4.4 0-7.9 3.5-7.9 7.9v57.7h-2.6v-68c0-4.4-3.5-7.9-7.9-7.9h-.9c-4.4 0-7.9 3.5-7.9 7.9v68H85V35.8c0-4.4-3.5-7.9-7.9-7.9h-.9c-4.4 0-7.9 3.5-7.9 7.9v79.6c-8.4-8.9-13.5-18.9-18.9-20.1-7-1.6-12.9 3.8-8.1 13.1 4.9 9.3 28.1 49.9 28.1 49.9 3.1 7.5 13 18.4 36.3 18.4 37.5 0 37.5-33.4 37.5-33.4l.1-56.1zm-14.2 40.7c-2.7 5.7-5.3 9.9-23.4 24.2-18.1-14.3-20.7-18.5-23.4-24.2-2.7-5.7-1.1-19.5 10-20.3 11.2-.8 13.4 8.1 13.4 8.1s2.2-8.9 13.4-8.1c11.1.7 12.7 14.6 10 20.3z" fill="#fff"/>
</symbol>
<symbol id="info" viewBox="0 0 75 60"><style>.st1{fill:#fff}</style><g opacity=".4"><path class="st1" d="M33 35.9c0 9.3 9.3 16.9 20.7 16.9 2.1 0 4.1-.2 5.9-.7C69.6 55.1 74 60 74 60s-2.7-5.4-4-13.7c2.8-2.9 4.5-6.5 4.5-10.5 0-9.3-9.3-16.9-20.7-16.9-11.5.1-20.8 7.7-20.8 17zm23.8-9.8c0 .7-.3 1.3-.9 1.8-.6.5-1.4.7-2.2.7-.9 0-1.6-.2-2.2-.7-.6-.5-.9-1.1-.9-1.8s.3-1.3.9-1.8c.6-.5 1.3-.7 2.2-.7.9 0 1.6.2 2.2.7.6.5.9 1.1.9 1.8zm-7.9 19.4c.7-.1 1.2-.3 1.5-.5.3-.2.4-.7.4-1.4V31.1h7.8v.8c-.8.1-1.4.3-1.6.5-.3.2-.4.7-.4 1.4v9.7c0 .8.2 1.3.6 1.6.3.2.8.3 1.5.4v.8h-9.6v-.8z"/><ellipse class="st1" cx="53.8" cy="36.3" rx="8.7" ry="13.8"/></g><path class="st1" d="M28.5 1C15.3 1 4.6 11.7 4.6 24.9c0 5.6 1.9 10.7 5.2 14.8C8.3 51.3 5.2 59 5.2 59s5.2-6.9 16.5-11.2c2.2.6 4.5 1 6.8 1 13.2 0 23.9-10.7 23.9-23.9S41.7 1 28.5 1zm-2.4 7.4c.7-.7 1.6-1.1 2.6-1.1s1.8.4 2.5 1.1c.7.7 1.1 1.6 1.1 2.6s-.4 1.9-1.1 2.6c-.7.7-1.6 1.1-2.5 1.1-1 0-1.9-.4-2.6-1.1-.7-.7-1.1-1.6-1.1-2.6s.4-1.9 1.1-2.6zM34 39.6H23v-1.1c.8-.1 1.4-.3 1.7-.6.5-.4.7-1.1.7-2.2V21.9c0-.9-.2-1.6-.5-1.9-.3-.3-.9-.6-1.9-.8v-1.1h8.9v17.7c0 1 .2 1.7.5 2 .3.3.9.5 1.7.7v1.1z"/>
</symbol>
<symbol id="legal-available" viewBox="0 0 150 150"><style>.st1{fill:#fff}</style><path d="M0 0h150v150H0z" fill="#00afdb"/><circle class="st1" cx="29.6" cy="48" r="3.9"/><path class="st1" d="M71.5 36.1c-8.2 6.1-22.9 17.5-38.3 14.3 0 0-9.1-1.7-1.9-4.7 1.3-.6-8.3 1.1-3.8 5.3 6.2 5.9 42-.9 43.9-2.9l.1-12z"/><circle class="st1" cx="120.2" cy="48" r="3.9"/><path class="st1" d="M78.3 36.1c8.2 6.1 22.9 17.5 38.3 14.3 0 0 9.1-1.7 1.9-4.7-1.3-.6 8.3 1.1 3.8 5.3-6.2 5.9-42-.9-43.9-2.9l-.1-12zM58.7 88c-.3 1-6 8.3-10.8 8.7-10.9.9-20.3 0-20.3 0s-8.1-5.5-7.9-8.7h39z"/><path transform="rotate(-56.312 22.566 83.176)" class="st1" d="M21.3 82.3h2.6v1.8h-2.6z"/><path class="st1" d="M24.9 81.2l-1.5-1 1.9-2.9 1.5 1-1.9 2.9zm2.8-4.2l-1.5-1 1.9-2.9 1.5 1-1.9 2.9zm2.9-4.2l-1.5-1 1.9-2.9 1.5 1-1.9 2.9zm2.8-4.2l-1.5-1 1.9-2.9 1.5 1-1.9 2.9zm2.8-4.3l-1.5-1 1.9-2.9 1.5 1-1.9 2.9zm3.2-4.2l-.2-.3-.2.3-1.5-1 1-1.4H40l.9 1.5zm13.5 21.1L51 78.4l1.5-.9 1.8 2.9-1.4.8zM50.2 77l-1.8-2.9 1.5-.9 1.8 2.9-1.5.9zm-2.7-4.2l-1.8-2.9 1.5-.9 1.8 2.9-1.5.9zm-2.7-4.2L43 65.7l1.5-.9 1.8 2.9-1.5.9zm-2.7-4.3l-1.8-2.9 1.5-.9 1.8 2.9-1.5.9z"/><path transform="rotate(-32.574 55.18 83.219)" class="st1" d="M54.3 81.9h1.8v2.6h-1.8z"/><path class="st1" d="M39.2 53.7c.8 0 1.4.6 1.4 1.4 0 .8-.6 1.4-1.4 1.4-.8 0-1.4-.6-1.4-1.4.1-.8.7-1.4 1.4-1.4m0-1.8c-1.7 0-3.1 1.4-3.1 3.1 0 1.7 1.4 3.1 3.1 3.1 1.7 0 3.1-1.4 3.1-3.1.1-1.7-1.3-3.1-3.1-3.1zM56.5 85c.8 0 1.4.6 1.4 1.4 0 .8-.6 1.4-1.4 1.4s-1.4-.6-1.4-1.4c0-.8.6-1.4 1.4-1.4m0-1.8c-1.7 0-3.1 1.4-3.1 3.1 0 1.7 1.4 3.1 3.1 3.1 1.7 0 3.1-1.4 3.1-3.1 0-1.6-1.4-3.1-3.1-3.1zM21.3 85c.8 0 1.4.6 1.4 1.4 0 .8-.6 1.4-1.4 1.4-.8 0-1.4-.6-1.4-1.4.1-.8.7-1.4 1.4-1.4m0-1.8c-1.7 0-3.1 1.4-3.1 3.1 0 1.7 1.4 3.1 3.1 3.1 1.7 0 3.1-1.4 3.1-3.1.1-1.6-1.3-3.1-3.1-3.1zM130.9 88c-.3 1-6 8.3-10.8 8.7-10.9.9-20.3 0-20.3 0s-8.1-5.5-7.9-8.7h39z"/><path transform="rotate(-56.312 94.598 83.246)" class="st1" d="M93.3 82.4h2.6v1.8h-2.6z"/><path class="st1" d="M97 81.3l-1.5-1 1.9-2.9 1.5 1-1.9 2.9zm2.8-4.3l-1.5-1 1.9-2.9 1.5 1-1.9 2.9zm2.8-4.2l-1.5-1 1.9-2.9 1.5 1-1.9 2.9zm2.9-4.2l-1.5-1 1.9-2.9 1.5 1-1.9 2.9zm2.8-4.3l-1.5-1 1.9-2.9 1.5 1-1.9 2.9zm3.3-4.2l-.2-.3-.3.3-1.4-1 1-1.4h1.4l1 1.5zM125 81.2l-1.8-2.9 1.5-.9 1.8 2.9-1.5.9zm-2.7-4.2l-1.8-2.9 1.5-.9 1.8 2.9-1.5.9zm-2.7-4.2l-1.8-2.9 1.5-.9 1.8 2.9-1.5.9zm-2.6-4.2l-1.8-2.9 1.5-.9 1.8 2.9-1.5.9zm-2.7-4.3l-1.8-2.9 1.5-.9 1.8 2.9-1.5.9z"/><path transform="rotate(-32.574 127.309 83.218)" class="st1" d="M126.4 81.9h1.8v2.6h-1.8z"/><path class="st1" d="M111.4 53.7c.8 0 1.4.6 1.4 1.4 0 .8-.6 1.4-1.4 1.4-.8 0-1.4-.6-1.4-1.4 0-.8.6-1.4 1.4-1.4m0-1.8c-1.7 0-3.1 1.4-3.1 3.1 0 1.7 1.4 3.1 3.1 3.1 1.7 0 3.1-1.4 3.1-3.1 0-1.7-1.4-3.1-3.1-3.1zM128.7 85c.8 0 1.4.6 1.4 1.4 0 .8-.6 1.4-1.4 1.4-.8 0-1.4-.6-1.4-1.4 0-.8.6-1.4 1.4-1.4m0-1.8c-1.7 0-3.1 1.4-3.1 3.1 0 1.7 1.4 3.1 3.1 3.1 1.7 0 3.1-1.4 3.1-3.1 0-1.6-1.4-3.1-3.1-3.1zM93.5 85c.8 0 1.4.6 1.4 1.4 0 .8-.6 1.4-1.4 1.4-.8 0-1.4-.6-1.4-1.4 0-.8.6-1.4 1.4-1.4m0-1.8c-1.7 0-3.1 1.4-3.1 3.1 0 1.7 1.4 3.1 3.1 3.1 1.7 0 3.1-1.4 3.1-3.1 0-1.6-1.4-3.1-3.1-3.1zM72.6 29.8h4.8v55.1h-4.8zm-2.4 55.1h9.7v29.7h-9.7z"/><path class="st1" d="M58.3 120.2c1.2-5.3.8-9.8 4.2-9.8H87s4.4-1.1 4.8 9.8H58.3z"/>
</symbol>
<symbol id="legal" viewBox="0 0 60 60"><style>.st3{fill:#fff}</style><g opacity=".8" id="Layer_1"><path class="st3" d="M51.3 16.2c0 1.1.9 2 2 2s2-.9 2-2-.9-2-2-2-2 .9-2 2z"/><path class="st3" d="M31.8 10.1c4.2 3.1 11.7 9 19.6 7.3 0 0 4.7-.9.9-2.4-.7-.3 4.2.6 1.9 2.7-3.2 3-21.5-.5-22.5-1.5l.1-6.1zM8.9 16.2c0 1.1-.9 2-2 2s-2-.9-2-2 .9-2 2-2 2 .9 2 2z"/><path class="st3" d="M28.3 10.1c-4.2 3.1-11.7 9-19.6 7.3 0 0-4.7-.9-.9-2.4.7-.3-4.2.6-1.9 2.7 3.2 3 21.5-.5 22.5-1.5l-.1-6.1zm10 26.6c.2.5 3.1 4.3 5.5 4.5 5.6.5 10.4 0 10.4 0s4.1-2.8 4.1-4.5h-20z"/><path transform="rotate(-33.688 56.843 34.195)" class="st3" d="M56.4 33.5h.9v1.3h-.9z"/><path class="st3" d="M54.7 31.7l.7-.5 1 1.5-.7.5-1-1.5zm-1.5-2.1l.7-.5 1 1.5-.7.4-1-1.4zm-1.4-2.2l.7-.5 1 1.5-.7.5-1-1.5zm-1.5-2.2l.7-.5 1 1.5-.7.5-1-1.5zm-1.4-2.1l.7-.5 1 1.5-.7.5-1-1.5zm-.7-.7l.1-.2.1.2.8-.5-.5-.8h-.8l-.4.8zm-7.6 10.3l.9-1.5.8.5-.9 1.5-.8-.5zm1.3-2.1l.9-1.5.8.5-.9 1.4-.8-.4zm1.4-2.2l.9-1.5.8.5-.9 1.5-.8-.5zm1.4-2.2l.9-1.5.8.5-.9 1.5-.8-.5zm1.4-2.1l.9-1.5.8.5-.9 1.5-.8-.5z"/><path transform="rotate(-57.425 40.144 34.213)" class="st3" d="M39.5 33.8h1.4v.9h-1.4z"/><path class="st3" d="M48.3 19.1c.4 0 .7.3.7.7 0 .4-.3.7-.7.7-.4 0-.7-.3-.7-.7 0-.4.3-.7.7-.7m0-.9c-.9 0-1.6.7-1.6 1.6 0 .9.7 1.6 1.6 1.6.9 0 1.6-.7 1.6-1.6 0-.9-.7-1.6-1.6-1.6zm-8.8 16.9c.4 0 .7.3.7.7 0 .4-.3.7-.7.7s-.7-.3-.7-.7.3-.7.7-.7m0-.9c-.9 0-1.6.7-1.6 1.6 0 .9.7 1.6 1.6 1.6.9 0 1.6-.7 1.6-1.6 0-.9-.7-1.6-1.6-1.6zm18 .9c.4 0 .7.3.7.7 0 .4-.3.7-.7.7s-.7-.3-.7-.7.3-.7.7-.7m0-.9c-.9 0-1.6.7-1.6 1.6 0 .9.7 1.6 1.6 1.6.9 0 1.6-.7 1.6-1.6 0-.9-.7-1.6-1.6-1.6zM1.4 36.7c.1.5 3.1 4.3 5.5 4.5 5.6.5 10.4 0 10.4 0s4.1-2.8 4.1-4.5h-20z"/><path transform="rotate(-33.688 19.96 34.22)" class="st3" d="M19.5 33.6h.9v1.3h-.9z"/><path class="st3" d="M17.8 31.8l.7-.5 1 1.5-.7.5-1-1.5zm-1.5-2.2l.7-.5 1 1.5-.7.4-1-1.4zm-1.4-2.2l.7-.5 1 1.5-.7.5-1-1.5zm-1.5-2.1l.7-.5 1 1.5-.7.5-1-1.5zM12 23.1l.7-.5 1 1.5-.7.5-1-1.5zm-.7-.7l.1-.2.1.2.7-.5-.5-.8H11l-.5.8zM3.6 32.7l.9-1.5.8.5-.9 1.5-.8-.5zM5 30.6l.9-1.5.8.5-.9 1.4-.8-.4zm1.4-2.2l.9-1.5.8.5-.9 1.5-.8-.5zm1.4-2.2l.9-1.5.8.5-.9 1.5-.8-.5zm1.3-2.1l.9-1.5.8.5-.9 1.5-.8-.5z"/><path transform="rotate(-57.425 3.211 34.213)" class="st3" d="M2.5 33.8h1.4v.9H2.5z"/><path class="st3" d="M11.4 19.1c.4 0 .7.3.7.7 0 .4-.3.7-.7.7s-.7-.3-.7-.7c0-.4.3-.7.7-.7m0-.9c-.9 0-1.6.7-1.6 1.6 0 .9.7 1.6 1.6 1.6.9 0 1.6-.7 1.6-1.6 0-.9-.7-1.6-1.6-1.6zM2.5 35.1c.4 0 .7.3.7.7 0 .4-.3.7-.7.7s-.7-.3-.7-.7.3-.7.7-.7m0-.9c-.9 0-1.6.7-1.6 1.6 0 .9.7 1.6 1.6 1.6.9 0 1.6-.7 1.6-1.6 0-.9-.7-1.6-1.6-1.6zm18 .9c.4 0 .7.3.7.7 0 .4-.3.7-.7.7s-.7-.3-.7-.7.3-.7.7-.7m0-.9c-.9 0-1.6.7-1.6 1.6 0 .9.7 1.6 1.6 1.6s1.6-.7 1.6-1.6c0-.9-.7-1.6-1.6-1.6zm8.3-27.3h2.4v28.2h-2.4zm-1.3 28.2h5v15.2h-5z"/><path class="st3" d="M38.5 53.1c-.6-2.7-.4-5-2.1-5H23.8s-2.2-.5-2.4 5h17.1z"/></g>
</symbol>
<symbol id="line-art" viewBox="0 0 1282 6"><style>.st0{fill:#00b6de}</style><path class="st0" d="M1274.5 3.7c.7-.1.3-.3-1.5-.2l-1.3.3 2.8-.1zm-12.4-.6c-2.2.2-4.7.4-3.3.7 2.1-.3 2.7-.2 5-.6 1.8 0 3.2.1 2.9.2.7-.1 2.9.1 3.8-.1-2.4-.3-5.4-.3-8.6-.1-.6 0 .1-.1.2-.1zm-179.6-.6h1.2c-.4.1-.8 0-1.2 0zm-111.4-.1c.8 0 1.2 0 1.2-.1-.7 0-1.4 0-1.2.1zm-19-.4h1.1-1.1zm130.4.5l-3-.1c-.2.1 1.5.1 3 .1zm154.9 1.4c.6 0 1.1 0 1.6-.1-.5 0-1 0-1.6.1 0-.1 0-.1 0 0zm-105.9-1.6h.9c.3 0 .5-.1.8-.1l-1.7.1zm37.7-.1c-.9 0-1.1.3-1.5.4.5-.1 1.1-.2 1.9-.2 0 0-.1-.1-.4-.2zm59.7.5h1.1-1.1zm-124.3-.5c-.1 0-.2-.1-.3-.1-.1 0 .1.1.3.1zM51.2 4.3s-.1 0 0 0c-.3 0-.3 0 0 0zM7.5 2.9h.6c.1-.1.1-.1.1-.2l-.7.2zm909.8-1.3zM598 1.8c3.6.3-5.9.3-.4.6-.5-.1 4.9-.4.4-.6zm638.4 2h-1.5 1.5zM597.6 2.4h.6c-.3.1-.4 0-.6 0zm239.6-.6c.2 0 .5.1.8.1 0 0-.2 0-.8-.1zm59.7.4h-1.5 1.5zm-90.7 0c-.8 0-1.1-.1-2.2 0h2.2zm-32.3 0c.2 0 .4 0 .6.1h1l-1.6-.1zm-624.7 2c-.7-.1-1.1-.2-1.5-.3.5.2-4.2.3 1.5.3z"/><path class="st0" d="M1237.3 3.7c-.2.1-.5.1-1 .1h1.1c.1 0 .2-.1-.1-.1zm-432.4.7h-5.1 5.1zm-424.2-.3h-1.2c.5.1.9.1 1.2 0zm403.8.3c-.9-.1-1.9-.2-2.9-.2-.2 0-.5 0-.6.1l3.5.1zm-636.8-.5z"/><path class="st0" d="M114 4.6c4.9 0 2.3-.4 3.3-.6 5.8-.1 2.7.3 4.7.5 3.6-.1 6.4-.4 9.1-.4.2.1.7.1.1.2 3.8-.3 11.4 0 15.9-.4.3 0 .5.1.6.1-.7-.2-.8-.4-.7-.5 2.2 0 4.1-.2 4.9 0-1.3 0-1.5.1-2.1.2l2.3-.1c2.1.3-3.1.1-3.1.4 4.5-.1 9.7-.4 13.1-.3.7.3-8 .1-3.4.4l-5.3-.1c4.1.5-3.2 0 .5.5 7 .1 7.8-.2 14.8-.1 1.6-.2-.5-.3 1.1-.5 9.9-.3 7.8.9 15.1.4 1.9-.2 2.6-.7 7.8-.4l-1.8.4c6.8 0 3.9-.6 10.9-.3-1.3.2-5.3.1-4.3.2 4.6.3 3.2-.2 6.8-.2l.7.3c7.2-.1 15.1-.3 23.1-.4-.4.1-1.8.2.1.3 10.1-.2 21.5 0 31.2.2l3.7-.3c.9 0 1.6.1.7.2 3.8.1.2-.2 2-.3 2.1 0 2.8.2 1.5.3 6.7-.2 19-.5 26-.2l-1.4.1c5.5.1 6.2-.6 11.2-.3l-1 .1c11.9.1 25-.1 34.1.3 1.7-.4 11.8.2 12.5-.4 6.8.3 4.8.4 14.4.6 2.5 0 3.8-.4 7-.4l.1.3 4.3-.3 2.3.4 3-.1c-1.2 0-2.5-.1-2.3-.2 4.6-.1 11.3.2 11.4.4l10.9-.3c-.2.1-2.1.2-3.5.2 5.8-.3 1.1.3 6.4 0-.7-.1.4-.2.5-.2 2.7.2 8.7.2 13.2.1l-.9.2c8.1.1 17.1-.1 26.2-.1-3.3-.1-2.5-.5.2-.5l1.1.3c1.7-.2-2.8-.1.7-.4 3.4 0 2.3.4.3.5l4.1-.1c.2.1-.7.1-1 .3 1.7-.2 7.1.3 9.6 0l.2.1c9.1 0 13.2-.1 20.6-.1.1-.3 3-.2 5.2-.4 5.4.1 11.5.3 18 .3 4.6-.1 1.3-.2 3.4-.4.3.3 6.9.2 3.5.4 7.9 0 10.1-.1 20-.3-1.1-.1-2.3-.2-1.7-.2 1.8 0 4.1.1 3.9.2h-.5c11.2-.4 25.8.7 34.7.2h-.5l9.2-.3c4.2 0-2.5.2.6.4 10-.4 15.7.1 23.9-.2 6.3.8 22.5-.1 31.1.4l-.5-.2c2.2-.2 2.7.1 4.3.1-.2-.1-2.4-.2-1-.3 18.8-.3 38.7.2 57.9.3 7 0 4-.9 12.9-.5l-2.5.3c14.2-.4 29 0 42.9-.3-.8.1-.9.2-2.2.2 2.9.2 10.9 0 10.9-.2 2.2 0 .5.2 1.8.3 2.9.1 7.4-.3 9-.1.3 0-.8.1-1.4.1 1.9-.1 8.9 0 7.1-.2 5.2.1 10-.1 14.1 0 2.7-.3 8.9.1 9.8-.3-.4.5 9.1.4 12.4.2-1.1.1 2.9.1 1.6.3 3.8 0 7.2-.1 6.6-.3 6.9.5 13.9-.4 17.8.3 11.2-.2 21.5-.4 31.6-.5-.4.5-11.1 0-10.7.5 9.5-.2 15-.6 24.5-.5 2.4.1-1.4.2-2.2.3 9.5-.2 18.4 0 26.9-.2 0 0-.9.1-1.8.1 1.7 0 3.9.1 3.7-.1h-1.6c-2.7-.3 6.6-.6 6.9-.8-2.8.6 8.4.1 3.9.9 1.1 0 2.5-.1 2.2-.3 1.6 0 2.1.1.5.3 6-.1 3.9-.3 9.3-.3 0 .1-1.1.1-1.7.3 2.7-.2 5.5-.4 10.1-.3-.3.1.3.1-1.1.1 7.9 0 13.4-.5 22-.3-2.5.4 2.9.1 3.4.5l4.6-.1-1.9-.2c4.1 0 7.7-.3 11.2-.1l-3 .2 7.6-.1-4.2-.2c4.1-.2-.4-.5 5-.4-1.1 0 4.1 0 6.2.2 2-.1 4.1-.2 7.1-.2.8.1-.6.4-.1.5 2-.3 9.5-.1 12-.4-.8.1-.9.3-.6.3l1.7-.3c1.9.1 2.2.1 1.9.3 5.7 0-1.8-.5 4.9-.3-.5 0-.3.1-1.4.1 6.8.1 13.1-.2 19.3 0 1.8.4-5.4.1-3.3.4 8.9-.1 18.5-.5 27.2-.4h-1.6c1.2-.5 6.4.3 10.8 0-1.1 0-1.4.3-1.1.2 5.9.1 12.1-.1 21.1-.3l-1.1.1c3.5.1 9.2.1 13 .1 1.1-.1 3.3-.1 2-.3 11.6.8 22.2-.4 32.5.2-1.2 0-2.9.1-2 .1l8.8-.1c-.7-.2-1.2-.1-3-.3 1.1-.1 3.6-.2 5.8-.2-4 .2 0 .4 1.7.5-.3-.1.3-.1.2-.2 4.6.4.8-.5 7-.2l-.3.1c2.3-.1 4.5-.2 7-.2 1.1.3-2.5.1-2.7.3 3.6 0 7-.5 10.2-.2-1.5.1-3.7.1-5.2.1 3.5.3 3.9.2 6.5.3h-.3l6 .1-1.5-.1c4.5-.7 9.1-.1 15.1-.6-5.8.4-1 .2-1.4.6 1.5.1 3.9.2 3.2.3 2.8-.2 4.7.2 8.7-.2.2.1 3 0 2.4.3 3.7-.1-.9-.2-.6-.3 5.7-.3 13.3.4 21.5-.1 7-.2 8.3-.5 14.9-.7 2.2.2-1.8.4-1.8.4 3.6.1 6.2.1 9.6 0-.7.1 0 .2 1 .3 2.7 0 1.8-.4 5.3-.2-.6.1-1.4.3-2.7.4 3.2-.1 6.3-.3 9.6-.4.9.2-2 .3-3.1.4 3.7-.1 9.6-.2 10.7-.4l-2.4-.1c1.3 0 .7.2-.3.3-3.2.2-4.6-.1-4.7-.2l2.3-.1c-2.4-.6-9.4.1-14.1.1l2-.4-4.8.3c-1-.1-1.7-.3.6-.4-3.4-.2-3 .1-5.9-.1-.3 0-.2-.1.1-.1l-3.3.1c.6-.1-.5-.3 1.5-.2-5.9-.2-9.5.3-11.8 0h.5c-8.2.1-.8.3-7 .7l-4.1-.8-.8.3c-.8 0-2.5 0-2.2-.2-3.2.2.5.1-1.3.3-4.1-.3-11.2.1-12.2-.4-1.5.2 3.9.2-.5.3-1.2-.5-5 .1-8.8-.2 1.1-.3 4.7-.1.9-.4-2.2.5-7.3-.1-10.4 0-.1.4-6.8.2-12.1.3.3-.1-9.9-.2-14.8-.3l.1-.1c-.9.4-6 .3-9.7.4.1-.2.8-.3 2.8-.4h-3.5c-.8.1-1.9.2-4.1.2l.9-.3c-4.6 0-9.3.3-15.2.1-.3.3 4.7.7-1.6.9-.2-.1-.5-.4 1.2-.4-.5 0-1.9.1-3 .1l2.5-.2c-2.7-.1-1.4.2-3.6.2 0-.2-1.6-.1-1.3-.3.6 0 1.9.1 2.7 0-2.4 0-5.4-.2-6.4-.3.2.1 0 .3-1.8.3-4.6 0-1.6-.2-4.3-.3-1.1.1-4.1 0-4.1.3-1.3 0-1.6-.1-2.1-.2-2.4.1-11.1 0-8.5.4h.6-.4c-7.8.3-16.2-.2-24 0v-.1c-4.6.1-10.3.1-13.6.3-1.4 0-3.2-.2-2.6-.3-3.5.1-3.9.2-9.1 0 3.6-.2-1.2-.2 3.6-.1-4.6-.1-5.6-.2-10.6 0 1.7-.3-3.5-.3-5.7-.2l3.2.2h-6.8l1.2-.3c-9.4-.4-17 .7-24.1 0-2.5.2 5.1.2 2.9.4-4.3 0-8.8-.5-10.2-.5-5.9-.2-5.5.5-11.7.4.8.1 1.5.4-3.1.5-4.3 0-5.3-.5-2.6-.6 1 0 1.5 0 1.5.1 1.4 0 3.2-.1 1.5-.2l-.6.1c-2.1-.1-8.1-.1-6.7-.3-3.3.1-1.4.2 1 .3-5.6-.2-8.7 0-14.4-.1.9.1 1.7.2.8.2-8.4-.1-3.7.2-9.4.3-3.2-.2 1.2-.4-4.6-.3-3.5-.1-.7-.3.6-.4-5.2.2-9.7-.2-12.7-.2l2.7-.1c-1.6.1-3 .1-4.4.1l1.6.2c-1.6 0-3 0-2.9-.1-1.7.2 1.3.4-2 .6-2.1-.1-6.5.1-7.3-.2 6.8.1-.7-.3 5-.4h-4.1c-.2 0 .2-.1.7-.1-6.5-.3-3 .4-9.7.3.9-.2-1.6-.3-2.6-.3 2.7 0 1.3.3-1.2.4-4.3-.1-4.7.1-6.9.1l2.6.1c-.9.2-3 .2-6 .2-.3-.1 2.7-.1 1.7-.2-3.3.3-7.5-.3-12.2-.1-2.1-.1-.2-.3-2.1-.4-5.2.2-5.6-.2-11.1-.1 1.6.2 1.9.2-2 .4l9-.2-5.3.5c2.7 0 5.7-.1 7.3-.1-2.7.2-2.5.1-1.2.3-3.7-.4-7.4.2-11.6 0l.1-.6c-6.4-.3-11.5.3-19.8.2l2.7.1c-1.1.2-5.2 0-7.9.1.3-.2-1.4-.3-2.6-.4.1.1-6.1 0-6.9.4l-3.7-.3c-6.8-.1-7.7.6-14.2.5 2-.2-1-.4 3.4-.5-2.2 0-4.1 0-4.2.1-1.3-.1-6 .3-8 .1-.9.1-1.2.3-3.7.3-.3 0 0-.1 0-.1 0 .1-3.8.1-1.7.4-6.7-.6-18.7 0-24.5-.5-4.7.1-10.4.1-14.7.1.3-.1 0-.1.8-.1-5.9-.2-3.6.6-10.4.4-3.4-.3 3.6-.2 1.4-.3-.9-.6-8.1.1-12.7-.3h1.1c-3.5-.2-8.5.2-14.1.2 0 0 .3-.1 0-.1-3.9.3-11.2.4-16.7.5 1.7-.3 2.5-.1 1.4-.4-2.4 0 .7.4-4.2.5-1.6-.1-5.1-.3-5.6-.5h4.6c-2.4-.4-6 0-8.4 0l.3-.2c-7.1.1-7.2.4-14.7.4l.8.1c-4.1.4-3.5-.2-7.6.1l-1.3-.4c-2.7.1-9.6.4-14.5.5 2.8-.3 8.5-.4 12.1-.6-2.7 0-9.2 0-10.6.2 1.1 0 2.5-.1 3.5-.1-3.3.3-7.7.5-13.1.5 1-.8-14.1-.2-18-.8-9.6.3-19-.1-30.1-.1 3.9.6-3.3 0-2.6.6h-3.8l-7.9-.4c-1.9-.2 2.5-.1 2.2-.3-5.7 0-2.4-.3-6.1-.4.8.2-2 .3-5.2.2l4.6.3c-7.9.3-6.9-.5-14.9-.2l2.5-.2c-4.1.1-15.1 0-19.2.5-.7-.1-1.7-.2.1-.3-9.8-.1-21.8.5-29.5.2l.7-.1c-1.8 0-3.2.3-5.5.1.1-.1.7-.1-.1-.2-1 .1-4.9.3-7.3.2l2.1-.2c-9.6-.2-14.7.4-22.7.5 0-.4-7.5-.6-11.3-.7l.1-.1c-11.1-.1-18.9.4-29.2.5-6.4-.5-21.7-.2-32-.5 1.6.1-.3.3-2.1.4-2.4-.1-6.7.3-6.3-.1h.9c-1.8-.4-6.8-.3-10.7-.3l-.6.5c-10.1-.8-26.6.3-32.1-.4-2.4.1-5.5.1-7.9.3l.1-.3c-6.8-.1-10.2-.1-18.5 0l1.7-.2c-4.7 0-6 .8-10.3.8l-1-.2c-8.2 0-16.6-.4-24.7 0 .1-.1.4-.2 1.7-.2-3.9 0-15-.3-13.6.3-.1-.4-8.5 0-13 .1l.7-.3c-3.8.4-3.9.5-9.1.6-1.2 0-1.1-.2.6-.2-4.1-.1-3.2.3-8.3.1l1.9-.2c-4.3 0-3.9.1-6.3.3-2.7.1-8.1-.1-8.7-.3-.6.2-2.9.4-5.4.3-.3-.1.6-.2 1-.2-7.1-.2-10.6.3-15.5.1-.1-.1-.4-.1-.8-.2h9.8c0-.3-4.6-.3-.9-.7-3.7.2-10 .6-14.4.5-.2 0-.4 0-.6-.1h.5-2.8c-1.4 0-2.3-.1-3.7-.1-.5-.2-5.2-.1-7.5-.1.2.3-2.8.2 0 .5h8.4c-1.8.1-3.7.3-6.2.1-1.2.2-2.5.4-3.2.5-3.1-.4-9.1-.6-10-.8-7 .2-16.4.1-20.8.6-2 .1-2.3-.2-3-.2 1.1-.1 2.5 0 3.1-.1-4 .1-11.7.1-12.7.4-5-.2 2.8-.3-4.1-.3l.9-.1c-13.5-.6-21.9.9-36.9.2 1 0 1.6.1 1.8.1-17.2-.4-35.2.3-52.1-.2-4.8-.1-5.3.1-8.2.3l-1-.3-5 .3c-7.1.3-12.3-.7-21.2-.3l1.2.2c-3.2 0-10.2.1-9.7-.1-.3 0-1.1.2-2.3.1l-.1-.2-7.9.3c-6.1-.1 1-.6-8-.7-3.3.1-9.5.5-8.2.6 1.3 0 3.4.1 3.5.3l-3 .1c-.6.5-2.9.9 4.6 1.3l5.2-.3 1.7.2h-4.4c2.5.2 4.1 0 5.8-.1.4.1 1.1.2 2.2.2l5.1-.4c.5.2-2.4.4 1 .5 2.4-.2-2.3-.4 1.7-.5 2.5.2 1.8.3 4.7.2.4.1-.2.2-1.4.2 2.6-.1 6.9-.1 8.2-.3 2.6.3 8.8-.1 8.5.4.8-.1 4.6-.3 7-.4-4.4.5 8.9 0 7.8.6 3.2-.5 11.7-.2 17.4-.5-.3 0-.9.1-1.5.1 3.2 0 4.2.2 6.2.3.4-.4 5.4-.5 8.1-.7 3.9.4-2.4.5-1.2.8-.2-.3 6.9-.3 5.5-.6 3 .2 2.6.1 4.2.4.5-.5 2.8-.1 5.3-.4 4.4.2 1.1.5 5.9.3 2.4.2-1.8.4-1.8.4zm114.1-.9c0 .1 0 .1 0 0h-2.4c.5.1 1.2.1 2.4 0zm9.5 0h-4.2c-.3-.1 0-.2 1-.2-.4.1 1.8.2 3.2.2zm-20.2-1.9c1.5 0 2 0 2.2.1h-2.9c.2 0 .4-.1.7-.1z"/><path class="st0" d="M214.6 2.2h-.6c.3 0 .6 0 .9.1.2 0 .4-.1.5-.1h-.8zm869.2.4h-.2.4-.2zM370 4.3v-.1l-.8.1zm766.6-.8c.1 0 .3.1.7.1 0 0-.3 0-.7-.1zm22.8.1l3.2.1c-1.3 0-2.3-.1-3.2-.1zm17.6.1c.2 0 .3-.1.3-.1l-.3.1zm-278.9.4zm83-.7c-.9.1-1.7.1-2.7.1 1.5.1 2.7.1 2.7-.1zm-175.7 1h-.6.6zm169.2-.8c1.5.1 2.7 0 3.9 0-1.3-.1-2.7-.1-3.9 0zm278.4.3h.9-.9zm.9-.1h.9-.9zm3-.1l-2 .1c.7 0 1.5 0 2-.1zm-27.1 0l-.3.1c.2 0 .3 0 .3-.1zm-7.1.1c1.7 0 4.2.2 6.6.2l.2-.1c-1.1.1-5.2-.3-6.8-.1zm-29.4-1.3l5.9.1c-1-.1-2.4-.3.3-.3-7.5-.3 1.5.3-6.2.2zm-18.4-.1c3.2-.1 0-.2.1-.2-1.9 0-2.4.1-.1.2zm-132.4 0l.3-.3c-2.5 0 0 .1-.3.3zm-25.4 1.3l2.4.1 1.1-.2zm-14.9-1.8l1-.1-4 .1zm-222.5 0l.7.3c1.7 0 2-.3-.7-.3zm-96.1.4c-1-.2-3.7-.3-5.4-.1 2.1 0 4.3.1 5.4.1zm-288.1-.5l2-.1h-3.7z"/>
</symbol>
<symbol id="link-icon" viewBox="0 0 25 25"><path d="M12.5 2.5c-5.5 0-10 4.5-10 10s4.5 10 10 10 10-4.5 10-10-4.5-10-10-10zm1.1 15.4H10l4.1-4.1H6v-2.6h8.1L10 7.1h3.6l5.4 5.4-5.4 5.4z" fill="#f47b20"/>
</symbol>
<symbol id="logo" viewBox="0 0 353.3 163.7"><g fill="#fff"><path d="M34.4 128.8S12.7 83.3 20.3 74c5.2-6.5 19.4-13.8 23.5-25.7 4.2-12.1.7-19.9.7-19.9S77.1 49.1 54.9 83c-11.6 17.9-20.5 45.8-20.5 45.8z"/><path d="M17.4 67.2s-4.8-15 3.7-24.3c5.3-5.8 5-4.9 17.9-15.8 0 0 5.7 17.4-3.5 27C23.2 67 17.4 67.2 17.4 67.2zM41 128.3s18-7 19.8-19.4c1.9-13.1-.9-23.2-.9-23.2-7.1 9.5-8.9 13.9-11.8 20.5-6.6 14.6-7.1 22.1-7.1 22.1z" opacity=".6"/><ellipse cx="39.9" cy="11.3" rx="11.3" ry="11.3" opacity=".6"/><path d="M80.2 27.6H94v101.7H80.2V27.6zm21.9 33.6H115V71h.3c5-7.3 14.5-11.5 23.7-11.5 21.1 0 34.6 15.7 34.6 35.8 0 20.4-13.7 35.8-34.6 35.8-9.8 0-19.1-4.5-23.7-11.5h-.3v44.1h-12.9V61.2zm13 34.1c0 13.8 8.6 23.7 22.4 23.7s22.4-9.9 22.4-23.7-8.6-23.7-22.4-23.7c-13.8 0-22.4 9.9-22.4 23.7zm65.5-25.8c7.2-6.8 17.5-10.1 27-10.1 20.1 0 28.5 10.9 28.5 22.7v34.8c0 4.7.1 8.8.6 12.4h-11.5c-.3-3.5-.4-6.9-.4-10.4h-.3c-5.7 8.8-13.5 12.1-23.9 12.1-12.7 0-23.6-7.2-23.6-20.4 0-17.5 16.8-23.6 37.5-23.6h9.5v-2.9c0-7-5.2-14.4-16.2-14.4-9.9 0-14.7 4.2-19.4 7.8l-7.8-8zm36.5 27.1c-12.2 0-27.2 2.2-27.2 13.1 0 7.8 5.8 11.1 14.7 11.1 14.4 0 19.4-10.6 19.4-19.8v-4.3l-6.9-.1zm66.8-18.3c-3-3.7-7.5-6.8-13.9-6.8-6 0-11.4 2.7-11.4 7.6 0 8.2 11.6 9.3 17.4 10.6 11.2 2.7 19.8 7 19.8 19.8 0 15.4-14.1 21.4-27.6 21.4-11.2 0-19.6-2.9-26.3-12.1l9.8-8.1c4.2 4.2 9.1 8.1 16.5 8.1 6.6 0 13.8-2.7 13.8-8.6 0-7.8-10.8-9.2-16.4-10.5-11.1-2.7-20.8-6.3-20.8-19.4 0-14.2 13.1-21 25.9-21 9.1 0 18.4 3.2 23.3 11.2l-10.1 7.8z"/><path d="M126.1 143.5h2v6.2h7.8v-6.2h2v15h-2v-6.9h-7.8v6.9h-2v-15zm16.5 10.7c0 1.8 1.6 2.9 3.4 2.9 1.2 0 2-.6 2.8-1.5l1.4 1.1c-1.1 1.4-2.5 2.1-4.5 2.1-3.2 0-5.2-2.3-5.2-5.3s2.2-5.3 5.2-5.3c3.5 0 4.9 2.7 4.9 5.3v.7h-8zm6.1-1.6c0-1.7-1-2.9-2.9-2.9s-3.1 1.6-3.1 2.9h6zm4.1-2.9c1.1-1 2.6-1.5 4-1.5 3 0 4.2 1.6 4.2 3.4v5.1c0 .7 0 1.3.1 1.8h-1.7c0-.5-.1-1-.1-1.5-.9 1.3-2 1.8-3.5 1.8-1.9 0-3.5-1.1-3.5-3 0-2.6 2.5-3.5 5.5-3.5h1.4v-.4c0-1-.8-2.1-2.4-2.1-1.5 0-2.2.6-2.9 1.1l-1.1-1.2zm5.4 4c-1.8 0-4 .3-4 1.9 0 1.1.9 1.6 2.2 1.6 2.1 0 2.9-1.6 2.9-2.9v-.6h-1.1zm5.5-11.3h1.9v16.1h-1.9v-16.1zm10.2 7.7h-2.7v4.6c0 1.1 0 2.3 1.4 2.3.4 0 1-.1 1.4-.3v1.7c-.4.3-1.3.3-1.7.3-3 0-3-1.8-3-3.4v-5.2h-2.2v-1.7h2.2v-2.8h1.9v2.8h2.7v1.7zm2.2-7.7h1.9v7.5c.5-1.1 1.8-1.8 3.3-1.8 2 0 3.7 1.2 3.7 3.8v6.5h-1.9v-6c0-1.9-1.1-2.6-2.3-2.6-1.6 0-2.8 1-2.8 3.4v5.2h-1.9v-16zm11.7 14.8c0-.8.6-1.4 1.4-1.4.8 0 1.4.6 1.4 1.4 0 .8-.6 1.4-1.4 1.4-.7 0-1.4-.6-1.4-1.4zm16.5-13.7h1.8l6.4 15h-2.4l-1.5-3.7h-7.2l-1.5 3.7h-2.4l6.8-15zm3.7 9.5l-2.8-6.9-2.8 6.9h5.6zm13.1-1.9c-.7-.7-1.4-1.1-2.5-1.1-2.1 0-3.1 1.7-3.1 3.6 0 1.9 1.3 3.4 3.3 3.4 1.1 0 1.8-.4 2.4-1.1l1.4 1.4c-1 1.1-2.4 1.6-3.8 1.6-3.1 0-5.3-2.1-5.3-5.2s2.1-5.3 5.3-5.3c1.5 0 2.9.5 3.9 1.6l-1.6 1.1zm10 0c-.7-.7-1.4-1.1-2.5-1.1-2.1 0-3.1 1.7-3.1 3.6 0 1.9 1.3 3.4 3.3 3.4 1.1 0 1.8-.4 2.4-1.1l1.4 1.4c-1 1.1-2.4 1.6-3.8 1.6-3.1 0-5.3-2.1-5.3-5.2s2.1-5.3 5.3-5.3c1.5 0 2.9.5 3.9 1.6l-1.6 1.1zm4.3 3.1c0 1.8 1.6 2.9 3.4 2.9 1.2 0 2-.6 2.8-1.5l1.4 1.1c-1.1 1.4-2.5 2.1-4.5 2.1-3.2 0-5.2-2.3-5.2-5.3s2.2-5.3 5.2-5.3c3.5 0 4.9 2.7 4.9 5.3v.7h-8zm6-1.6c0-1.7-1-2.9-2.9-2.9s-3.1 1.6-3.1 2.9h6zm9.5-1.6c-.4-.6-1.1-1-2.1-1-.9 0-1.7.4-1.7 1.1 0 1.2 1.7 1.4 2.6 1.6 1.7.4 2.9 1 2.9 2.9 0 2.3-2.1 3.2-4.1 3.2-1.7 0-2.9-.4-3.9-1.8l1.4-1.2c.6.6 1.3 1.2 2.4 1.2 1 0 2-.4 2-1.3 0-1.1-1.6-1.4-2.4-1.6-1.6-.4-3.1-.9-3.1-2.9 0-2.1 1.9-3.1 3.8-3.1 1.3 0 2.7.5 3.4 1.7l-1.2 1.2zm9.2 0c-.4-.6-1.1-1-2.1-1-.9 0-1.7.4-1.7 1.1 0 1.2 1.7 1.4 2.6 1.6 1.7.4 2.9 1 2.9 2.9 0 2.3-2.1 3.2-4.1 3.2-1.7 0-2.9-.4-3.9-1.8l1.4-1.2c.6.6 1.3 1.2 2.4 1.2 1 0 2-.4 2-1.3 0-1.1-1.6-1.4-2.4-1.6-1.6-.4-3.1-.9-3.1-2.9 0-2.1 1.9-3.1 3.8-3.1 1.3 0 2.7.5 3.4 1.7l-1.2 1.2zm4 6.2c0-.8.6-1.4 1.4-1.4s1.4.6 1.4 1.4c0 .8-.6 1.4-1.4 1.4-.8 0-1.4-.6-1.4-1.4zm11.8-13.7h5.3c3.8 0 4.8 2.3 4.8 4.2s-1.4 3.7-3.7 4l4.3 6.9H284l-3.8-6.6h-2.3v6.6h-2v-15.1zm2 6.6h2.7c1.6 0 3.2-.4 3.2-2.4s-1.6-2.4-3.2-2.4h-2.7v4.8zm11.3-6.7c.8 0 1.4.6 1.4 1.4 0 .8-.6 1.4-1.4 1.4s-1.4-.6-1.4-1.4c0-.7.7-1.4 1.4-1.4zm-.9 5h1.9v10.1h-1.9v-10.1zm14.8 10c0 3-2.2 5.2-5.5 5.2-1.9 0-3.5-.5-4.9-1.8l1.3-1.6c1 1.1 2.1 1.6 3.6 1.6 2.8 0 3.6-1.8 3.6-3.5v-1.5h-.1c-.7 1.2-2.1 1.8-3.5 1.8-3 0-5.1-2.2-5.1-5.2s2-5.3 5.1-5.3c1.4 0 2.8.6 3.5 1.7v-1.4h1.9v10h.1zm-8.5-4.9c0 2 1.3 3.4 3.3 3.4s3.3-1.3 3.3-3.4c0-2-1.3-3.5-3.3-3.5-2.1 0-3.3 1.4-3.3 3.5zm11.2-11.1h1.9v7.5c.5-1.1 1.8-1.8 3.3-1.8 2 0 3.7 1.2 3.7 3.8v6.5h-1.9v-6c0-1.9-1.1-2.6-2.3-2.6-1.6 0-2.8 1-2.8 3.4v5.2h-1.9v-16zm17 7.7h-2.7v4.6c0 1.1 0 2.3 1.4 2.3.4 0 1-.1 1.4-.3v1.7c-.4.3-1.3.3-1.7.3-3 0-3-1.8-3-3.4v-5.2H316v-1.7h2.2v-2.8h1.9v2.8h2.7v1.7zm7.6.9c-.4-.6-1.1-1-2.1-1-.9 0-1.7.4-1.7 1.1 0 1.2 1.7 1.4 2.6 1.6 1.7.4 2.9 1 2.9 2.9 0 2.3-2.1 3.2-4.1 3.2-1.7 0-2.9-.4-3.9-1.8l1.4-1.2c.6.6 1.3 1.2 2.4 1.2 1 0 2-.4 2-1.3 0-1.1-1.6-1.4-2.4-1.6-1.6-.4-3.1-.9-3.1-2.9 0-2.1 1.9-3.1 3.8-3.1 1.3 0 2.7.5 3.4 1.7l-1.2 1.2zm4 6.2c0-.8.6-1.4 1.4-1.4s1.4.6 1.4 1.4c0 .8-.6 1.4-1.4 1.4-.8 0-1.4-.6-1.4-1.4z" opacity=".6"/></g>
</symbol>
<symbol id="media-center-icon" viewBox="0 0 72 45"><style/><g id="megaphone"><path d="M9 28.9s-3.8 12-4 14c-.1 1.6 7 3 8 0s4-11 5-13-1 0-1-1-8 0-8 0" fill="#fda84f"/><path d="M4.5 25.9c2.5 0 4.5-2 4.5-4.5H0c0 2.5 2 4.5 4.5 4.5z" fill="#00afdb"/><path d="M4.5 16.9c-2.5 0-4.5 2-4.5 4.5h9c0-2.5-2-4.5-4.5-4.5z" fill="#f47b20"/><path d="M4.5 16.9c-2.5 0-4.5 2-4.5 4.5h9c0-2.5-2-4.5-4.5-4.5z" fill="#fda84f"/><path d="M4.5 25.9c2.5 0 4.5-2 4.5-4.5H0c0 2.5 2 4.5 4.5 4.5z" fill="#f47b20"/><g fill="#f47b20"><path d="M65.7 6.2l-1.4 1.4c7.6 7.6 7.6 20 0 27.6l1.4 1.4c8.4-8.4 8.4-22 0-30.4z"/><path d="M61.4 10.5L60 11.9c5.2 5.2 5.2 13.7 0 18.9l1.4 1.4c6-6 6-15.7 0-21.7z"/><path d="M57.3 14.6L55.9 16c3 3 3 7.8 0 10.8l1.4 1.4c3.8-3.8 3.8-9.9 0-13.6z"/></g><path d="M46.5 14.9c-.3 0-.6 0-.8.1L45 1.9c-.7 0-11.3 6.2-17.9 10h-5.9c-2.3 0-4.2 1.9-4.2 4.2v5.3h36c0-3.6-2.9-6.5-6.5-6.5z" fill="#fda84f"/><path d="M17 26.7c0 2.3 1.9 4.2 4.2 4.2h5.9c6.6 3.8 17.2 10 17.9 10l.7-13.1c.3 0 .6.1.8.1 3.6 0 6.5-2.9 6.5-6.5H17v5.3z" fill="#f47b20"/><path d="M46.7 42.4h-.5c-1.2 0-2.2-1-2.2-2.2V2.6c0-1.2 1-2.2 2.2-2.2h.5c1.2 0 2.2 1 2.2 2.2v37.5c.1 1.3-.9 2.3-2.2 2.3zM19 11.9H8.6c-2.6 0-4.6 2-4.6 4.5v9.9c0 2.5 2.1 4.6 4.6 4.6h9.9c.2 0 .4 0 .6-.1v.1h8v-19H19z" fill="#f47b20"/></g>
</symbol>
<symbol id="pattern-1" viewBox="0 0 15 15"><path d="M0 0h15v15H0z" fill-rule="evenodd" clip-rule="evenodd" fill="#00afdb"/><path d="M7.5 0H0v7.5zM0 15h7.5L15 7.5V0z" fill-rule="evenodd" clip-rule="evenodd" opacity=".05"/>
</symbol>
<symbol id="pattern-2" viewBox="0 0 150 173.2"><style>.st1{fill:#4d4d4d}</style><path d="M0 0v173.2h150V0z" fill="#414042"/><path class="st1" d="M10.1 107.5V93.8c0-1.1.6-1.8 1.5-2.3l3.6-2.1c1.6-.9 3.3-1.9 4.9-2.8 5-2.9 10-5.7 14.9-8.6V66.4c-3.4-1.9-6.7-3.9-10.1-5.8-4 2.3-7.9 4.6-11.9 6.9-3.7 2.1-7.4 4.3-11 6.4-.3.2-.5.3-.8.5-.4.2-.8.3-1.2.3v2c.9-.5 1.8-1 2.7-1.6 7-4.1 14-8.1 21.1-12.2.8-.4 1.7-.4 2.5 0 1.1.6 2.2 1.3 3.3 1.9l2.1 1.2c.6.4 1.3.7 1.7 1.3.4.7.3 1.5.3 2.3v6.2c0 .9-.5 1.7-1.2 2.1-1.3.8-2.6 1.5-3.9 2.3-3.7 2.2-7.4 4.3-11.2 6.5-2.9 1.7-5.8 3.3-8.7 5v27.4c0 .9-.5 1.7-1.2 2.1-1.1.6-2.2 1.3-3.3 1.9l-2.1 1.2c-.6.4-1.3.8-2 .8v2c3.4-1.9 6.7-3.9 10.1-5.8-.1-4.6-.1-9.2-.1-13.8z"/><path class="st1" d="M16.3 111.1V97.4c0-1.1.6-1.8 1.5-2.3l3.6-2.1c3.7-2.2 7.4-4.3 11.2-6.5 2.9-1.7 5.8-3.3 8.7-5V62.7c-5.4-3.1-10.9-6.3-16.3-9.4-4 2.3-7.9 4.6-11.9 6.9-3.7 2.1-7.4 4.3-11 6.4-.3.2-.5.3-.8.5-.4.2-.8.3-1.2.3v2c4.2-2.4 8.4-4.8 12.6-7.3 3.5-2 7.1-4.1 10.6-6.1.4-.2.7-.5 1.2-.6 1.1-.3 1.9.3 2.8.8 2 1.2 4 2.3 6 3.5 1.8 1 3.5 2 5.3 3 .9.5 1.5 1.4 1.5 2.5v14.2c0 .9-.5 1.7-1.2 2.1-1.3.8-2.6 1.5-3.9 2.3-1.6.9-3.3 1.9-4.9 2.8-5 2.9-10 5.7-14.9 8.6v27.4c0 .9-.5 1.7-1.2 2.1-2.3 1.3-4.6 2.7-6.9 4-1.8 1-3.5 2-5.3 3-.5.3-1 .4-1.5.4v2c5.4-3.1 10.9-6.3 16.3-9.4-.3-4.4-.3-9-.3-13.6zm8.7 28.8c-4 2.3-7.9 4.6-11.9 6.9-3.7 2.1-7.4 4.3-11 6.4-.3.2-.5.3-.8.5-.5.2-.9.3-1.3.3v2c4.2-2.4 8.4-4.8 12.6-7.3 3.5-2 7.1-4.1 10.6-6.1.4-.2.7-.5 1.2-.6 1.1-.3 1.9.3 2.8.8 2 1.2 4 2.3 6 3.5 1.8 1 3.5 2 5.3 3 .9.5 1.5 1.4 1.5 2.5V166c0 .9-.5 1.7-1.2 2.1-1.3.8-2.6 1.5-3.9 2.3-1.6.9-3.3 1.9-4.9 2.8h2.7c2.9-1.7 5.8-3.3 8.7-5v-18.8c-5.5-3.2-11-6.3-16.4-9.5z"/><path class="st1" d="M28.8 156.6c-1.3-.7-2.5-1.5-3.8-2.2-.9.5-1.8 1-2.7 1.6-7 4.1-14 8.1-21.1 12.2-.4.2-.8.3-1.2.3v2c.1-.1.2-.1.3-.2.8-.5 1.6-.9 2.4-1.4 2-1.2 4.1-2.3 6.1-3.5l15-8.7c2.3-1.3 4.4 1.5 3.4 3.3-.2.3-.5.7-.9.9-1.3.8-2.6 1.5-3.9 2.3-5.8 3.4-11.6 6.7-17.4 10.1h2.7c.4-.3.9-.5 1.3-.8 6.6-3.8 13.2-7.6 19.9-11.5-.1-1.5-.1-3-.1-4.4z"/><path class="st1" d="M35.1 153c-3.4-1.9-6.7-3.9-10.1-5.8-4 2.3-7.9 4.6-11.9 6.9-3.7 2.1-7.4 4.3-11 6.4-.3.2-.5.3-.8.5-.4.2-.8.3-1.2.3v2c.9-.5 1.8-1 2.7-1.6 7-4.1 14-8.1 21.1-12.2.8-.4 1.7-.4 2.5 0 1.1.6 2.2 1.3 3.3 1.9l2.1 1.2c.6.4 1.3.7 1.7 1.3.4.7.3 1.5.3 2.3v6.2c0 .9-.5 1.7-1.2 2.1-1.3.8-2.6 1.5-3.9 2.3-3.7 2.2-7.4 4.3-11.2 6.5h2.7c5-2.9 10-5.8 14.9-8.6V153zm109.7-8.8c-6.6-3.8-13.2-7.6-19.8-11.5-.9.5-1.8 1-2.7 1.6-6.6 3.8-13.2 7.6-19.9 11.5v26c.1 0 .1.1.2.1.8.4 1.5.9 2.3 1.3h2.7c-.2-.1-.4-.2-.6-.4-1.3-.7-3.2-1.5-3.2-3.2v-21.7c0-.9.5-1.7 1.2-2.1 1.8-1 3.6-2.1 5.4-3.1 4.1-2.4 8.2-4.7 12.3-7.1.3-.2.7-.4 1-.6.9-.5 1.9-.3 2.8.2l3.6 2.1c6.6 3.8 13.2 7.6 19.8 11.5v-2c-.5 0-1-.2-1.5-.5-1.1-.7-2.3-1.4-3.6-2.1z"/><path class="st1" d="M122.6 128.5v-26c-.9-.5-1.8-1-2.7-1.6-6.6-3.8-13.2-7.6-19.8-11.5-4 2.3-7.9 4.6-11.9 6.9-3.7 2.1-7.4 4.3-11 6.4-.3.2-.5.3-.8.5-.9.5-1.9.3-2.8-.2l-3.6-2.1c-6.6-3.8-13.2-7.6-19.8-11.5-.9.5-1.8 1-2.7 1.6-6.6 3.8-13.2 7.6-19.9 11.5v26c4 2.3 7.9 4.6 11.9 6.9 3.7 2.1 7.4 4.3 11 6.4.3.2.5.3.8.5.9.5 1.2 1.5 1.2 2.5v27.1c.8.5 1.6.9 2.4 1.4h2.7c-.9-.5-1.7-1-2.6-1.5-.7-.4-1.2-1.2-1.2-2.1v-27.4c-.9-.5-1.8-1-2.7-1.6-7-4.1-14-8.1-21.1-12.2-.7-.4-1.2-1.2-1.2-2.1v-21.7c0-1.3.8-1.9 1.8-2.4 1.6-.9 3.2-1.9 4.8-2.8 4.1-2.4 8.2-4.7 12.3-7.1.3-.2.7-.4 1-.6.9-.5 1.9-.3 2.8.2l3.6 2.1c6.6 3.8 13.2 7.6 19.8 11.5.9-.5 1.8-1 2.7-1.6 7-4.1 14-8.1 21.1-12.2.4-.2.8-.3 1.2-.3h.1c.4 0 .8.1 1.2.3 2 1.1 4 2.3 5.9 3.4l12 6.9c.3.2.5.3.8.5 1.1.6 1.2 1.7 1.2 2.8v21c0 1.1-.6 1.8-1.5 2.3l-3.6 2.1c-6.6 3.8-13.2 7.6-19.9 11.5v27.4c0 .9-.5 1.7-1.2 2.1-.9.5-1.7 1-2.6 1.5H95c.2-.1.4-.2.6-.4.6-.4 1.2-.7 1.8-1.1v-27.4c0-1.7 1.4-2.3 2.6-3 3.9-2.3 7.8-4.5 11.8-6.8 3.7-2 7.2-4.1 10.8-6.1z"/><path class="st1" d="M47.6 145.7c-.9-.5-1.8-1-2.7-1.6-6.6-3.8-13.2-7.6-19.8-11.5-4 2.3-7.9 4.6-11.9 6.9-3.7 2.1-7.4 4.3-11 6.4-.3.2-.5.3-.8.5-.4.2-.8.3-1.2.3v2l3.6-2.1c4.4-2.6 8.9-5.1 13.3-7.7 1.7-1 3.5-2 5.2-3 1.3-.7 2.6-1.8 4.1-.9l9.9 5.7 6.3 3.6c1.4.8 3.7 1.7 3.7 3.6v21.6c0 .9-.5 1.7-1.2 2.1-.9.5-1.7 1-2.6 1.5h2.7c.8-.5 1.6-.9 2.4-1.4v-26zm-25-17.2V101c0-1.1.6-1.8 1.5-2.3l3.6-2.1c5.8-3.4 11.6-6.7 17.4-10.1.8-.5 1.6-.9 2.4-1.4v-26c-.9-.5-1.8-1-2.7-1.6C38.2 53.7 31.6 49.9 25 46c-4 2.3-7.9 4.6-11.9 6.9-3.7 2.1-7.4 4.3-11 6.4-.3.2-.5.3-.8.5-.4.2-.8.3-1.2.3v2L3.7 60c4.4-2.6 8.9-5.1 13.3-7.7 1.7-1 3.5-2 5.2-3 1.3-.7 2.6-1.8 4.1-.9l9.9 5.7 6.3 3.6c1.4.8 3.7 1.7 3.7 3.6V83c0 .9-.5 1.7-1.2 2.1-.9.5-1.7 1-2.6 1.5-.4.3-.9.5-1.3.8-6.6 3.8-13.2 7.6-19.9 11.5v27.4c0 .9-.5 1.7-1.2 2.1l-9.9 5.7-6.3 3.6c-1.1.6-2.4 1.7-3.7 1.7v2c.9-.5 1.8-1 2.7-1.6 6.5-3.7 13.1-7.5 19.8-11.3z"/><path class="st1" d="M96.5 136.4c6.6-3.8 13.2-7.6 19.9-11.5v-18.8c-5.4-3.1-10.9-6.3-16.3-9.4-4 2.3-7.9 4.6-11.9 6.9-3.7 2.1-7.4 4.3-11 6.4-.3.2-.5.3-.8.5-.9.5-1.9.3-2.8-.2l-3.6-2.1c-6.6-3.8-13.2-7.6-19.8-11.5-5.4 3.1-10.9 6.3-16.3 9.4v18.8c4 2.3 7.9 4.6 11.9 6.9 3.7 2.1 7.4 4.3 11 6.4.3.2.5.3.8.5.9.5 1.2 1.5 1.2 2.5v27.1c2.9 1.7 5.8 3.3 8.7 5h2.7c-3-1.7-5.9-3.4-8.9-5.1-.7-.4-1.2-1.2-1.2-2.1v-27.4c-.9-.5-1.8-1-2.7-1.6-7-4.1-14-8.1-21.1-12.2-.7-.4-1.2-1.2-1.2-2.1v-13c0-1.3-.1-2.7 1.3-3.6 3.6-2.1 7.3-4.2 10.9-6.3.5-.3 1-.6 1.5-.8.9-.5 1.9-.4 2.8.1l3.6 2.1c6.6 3.8 13.2 7.6 19.8 11.5.9-.5 1.8-1 2.7-1.6 7-4.1 14-8.1 21.1-12.2.4-.2.8-.3 1.2-.3.4 0 .8.1 1.2.3 2.3 1.3 4.6 2.7 6.9 4 1.8 1 3.5 2 5.3 3 .9.5 1.5 1.4 1.5 2.5v14.2c0 .9-.5 1.7-1.2 2.1-1.3.8-2.6 1.5-3.9 2.3-6.6 3.8-13.2 7.6-19.9 11.5V166c0 .9-.5 1.7-1.2 2.1-2.3 1.3-4.6 2.7-6.9 4-.6.4-1.3.7-1.9 1.1h2.7c2.9-1.7 5.8-3.3 8.7-5v-27.5c0-1.1.6-1.8 1.5-2.3 1.2-.6 2.4-1.3 3.7-2zm48.3 29.4c-6.6-3.8-13.2-7.6-19.8-11.5-1.3.7-2.5 1.5-3.8 2.2v4.4c4 2.3 7.9 4.6 11.9 6.9 3.1 1.8 6.2 3.6 9.3 5.3h2.7c-.1-.1-.2-.1-.3-.2-7-4.1-14-8.1-21.1-12.2-.9-.5-1.2-1.2-1.2-2 0-1.6 1.8-3.3 3.6-2.2 1.3.8 2.6 1.5 3.9 2.3 6.6 3.8 13.2 7.6 19.8 11.5v-2c-.4 0-.9-.1-1.2-.3-1.1-.7-2.5-1.4-3.8-2.2z"/><path class="st1" d="M144.8 151.4c-6.6-3.8-13.2-7.6-19.8-11.5-5.4 3.1-10.9 6.3-16.3 9.4v18.8c2.9 1.7 5.8 3.3 8.7 5h2.7c-1.8-1-3.6-2.1-5.4-3.1-1.1-.6-2.2-1.3-3.3-1.9-1.7-1-1.4-2.9-1.4-4.5v-12.1c0-.9.5-1.7 1.2-2.1h.1c3.6-2.1 7.3-4.2 10.9-6.3.5-.3 1-.6 1.5-.8.9-.5 1.9-.4 2.8.1l3.6 2.1c6.6 3.8 13.2 7.6 19.8 11.5v-2c-.5 0-1-.2-1.5-.5-1.1-.7-2.3-1.4-3.6-2.1z"/><path class="st1" d="M144.8 158.6c-6.6-3.8-13.2-7.6-19.8-11.5-3.4 1.9-6.7 3.9-10.1 5.8v11.6c4 2.3 7.9 4.6 11.9 6.9 1 .6 2 1.2 3 1.7h2.7c-4-2.3-8.1-4.6-12.1-7-1-.6-2-1.1-3-1.7-1.1-.6-1.3-1.7-1.3-2.9v-6.4c0-1.5 1.1-2.1 2.2-2.8 1.7-1 3.5-2 5.2-3 .8-.4 1.7-.4 2.5 0 1.3.8 2.6 1.5 3.9 2.3 6.6 3.8 13.2 7.6 19.8 11.5v-2c-.4 0-.9-.1-1.2-.3-1-.7-2.4-1.4-3.7-2.2zM70 131.4c.9.5 1.2 1.5 1.2 2.5V161c1.3.7 2.5 1.5 3.8 2.2 1.3-.7 2.5-1.5 3.8-2.2v-27.4c0-.9.5-1.7 1.2-2.1 1.3-.8 2.6-1.5 3.9-2.3 6.6-3.8 13.2-7.6 19.9-11.5v-4.4c-1.3-.7-2.5-1.5-3.8-2.2-.9.5-1.8 1-2.7 1.6-7 4.1-14 8.1-21.1 12.2-.8.4-1.7.4-2.5 0-1.3-.8-2.6-1.5-3.9-2.3-6.6-3.8-13.2-7.6-19.8-11.5-1.3.7-2.5 1.5-3.8 2.2v4.4c4 2.3 7.9 4.6 11.9 6.9 3.7 2.1 7.4 4.3 11 6.4.3.1.6.2.9.4zm-21.2-13.8c-1.3-.7-1.4-2.1-.9-3.1.6-1.2 1.9-2 3.4-1.1 1.3.8 2.6 1.5 3.9 2.3 6.6 3.8 13.2 7.6 19.8 11.5.9-.5 1.8-1 2.7-1.6.6-.3 1.2-.7 1.8-1 6.4-3.7 12.9-7.4 19.3-11.1 2.5-1.4 4.7 1.9 3.1 3.7-.2.2-.4.4-.6.5-1.3.8-2.6 1.5-3.9 2.3-4.9 2.8-9.8 5.7-14.8 8.5-1.7 1-3.4 2-5.1 2.9v27.4c0 2.8-4 3.1-4.8.8-.1-.2-.1-.5-.1-.8v-27.4c-.9-.5-1.8-1-2.7-1.6-7.1-4.1-14.1-8.2-21.1-12.2z"/><path class="st1" d="M64.9 164.6c3.4 1.9 6.7 3.9 10.1 5.8 3.4-1.9 6.7-3.9 10.1-5.8v-27.5c0-1.1.6-1.8 1.5-2.3l3.6-2.1c6.6-3.8 13.2-7.6 19.9-11.5v-11.6c-3.4-1.9-6.7-3.9-10.1-5.8-4 2.3-7.9 4.6-11.9 6.9-3.7 2.1-7.4 4.3-11 6.4-.3.2-.5.3-.8.5-.9.5-1.9.3-2.8-.2l-3.6-2.1c-6.6-3.8-13.2-7.6-19.8-11.5-3.4 1.9-6.7 3.9-10.1 5.8v11.6c.9.5 1.8 1 2.7 1.6 7 4.1 14 8.1 21.1 12.2.7.4 1.2 1.2 1.2 2.1v4.5c-.1 7.7-.1 15.3-.1 23zm-1.3-31.3c-7-4.1-14-8.1-21.1-12.2-.7-.4-1.2-1.2-1.2-2.1v-6.3c0-.7-.1-1.5.3-2.2.4-.7 1.1-1 1.8-1.4.7-.4 1.4-.8 2.2-1.2 1.1-.6 2.1-1.2 3.2-1.8.8-.4 1.7-.4 2.5 0 1.3.8 2.6 1.5 3.9 2.3 6.6 3.8 13.2 7.6 19.8 11.5.9-.5 1.8-1 2.7-1.6 7-4.1 14-8.1 21.1-12.2.4-.2.8-.3 1.2-.3h.1c.4 0 .8.1 1.2.3.1.1.2.1.3.2l5.7 3.3c.8.5 1.5 1.2 1.5 2.3v7.1c0 1.1-.6 1.8-1.5 2.3l-3.6 2.1c-6.6 3.8-13.2 7.6-19.9 11.5v27.4c0 .9-.5 1.7-1.2 2.1-1.1.6-2.2 1.3-3.3 1.9l-2.1 1.2c-.6.4-1.3.8-2 .8-.8 0-1.5-.5-2.1-.9-.7-.4-1.4-.8-2.2-1.2-1.1-.6-2.1-1.2-3.2-1.8-.7-.4-1.2-1.2-1.2-2.1v-27.4c-1.1-.5-2-1-2.9-1.6zM3.8 114.5V90.2c0-.9.5-1.7 1.2-2.1.9-.5 1.7-1 2.6-1.5.4-.3.9-.5 1.3-.8 6.6-3.8 13.2-7.6 19.9-11.5v-4.4c-1.3-.7-2.5-1.5-3.8-2.2-.9.5-1.8 1-2.7 1.6-7 4.1-14 8.1-21.1 12.2-.4.2-.8.3-1.2.3v2c.1-.1.2-.1.3-.2.8-.5 1.6-.9 2.4-1.4 2-1.2 4.1-2.3 6.1-3.5l15-8.7c2.3-1.3 4.4 1.5 3.4 3.3-.2.3-.5.7-.9.9-1.3.8-2.6 1.5-3.9 2.3-5.8 3.4-11.6 6.7-17.4 10.1-.8.5-1.6.9-2.4 1.4v27.4c0 .4-.1.7-.2 1-.4.9-1.3 1.3-2.2 1.3v2c1.3-.7 2.5-1.5 3.8-2.2-.2-.9-.2-1.9-.2-3zm141.9-78.1c-1.1-.6-2.1-1.2-3.2-1.8-.7-.4-1.2-1.2-1.2-2.1V5.1c-.9-.5-1.8-1-2.7-1.6-2-1.1-4-2.3-6-3.4h-2.7c3 1.7 5.9 3.4 8.9 5.1.7.4 1.2 1.2 1.2 2.1v27.4c3.4 1.9 6.7 3.9 10.1 5.8v-2c-.8 0-1.5-.5-2.1-.9-.8-.3-1.6-.8-2.3-1.2zM10.1 20.9V7.2c0-1.1.6-1.8 1.5-2.3l3.6-2.1c1.6-.9 3.3-1.9 4.9-2.8h-2.7c-2.9 1.7-5.8 3.3-8.7 5v27.4c0 .9-.5 1.7-1.2 2.1-1.1.6-2.2 1.3-3.3 1.9l-2.1 1.2c-.6.4-1.3.8-2 .8v2c3.4-1.9 6.7-3.9 10.1-5.8-.1-4.5-.1-9.1-.1-13.7z"/><path class="st1" d="M16.3 24.5V10.8c0-1.1.6-1.8 1.5-2.3l3.6-2.1c3.7-2.2 7.4-4.3 11.2-6.5h-2.7c-5 2.9-10 5.7-14.9 8.6v27.4c0 .9-.5 1.7-1.2 2.1-2.3 1.3-4.6 2.7-6.9 4-1.8 1-3.5 2-5.3 3-.5.3-1 .4-1.5.4v2C5.5 44.3 11 41.1 16.4 38c-.1-4.3-.1-8.9-.1-13.5zm131.3 4.4V1.5c-.8-.5-1.6-.9-2.4-1.4h-2.7c.6.3 1.2.7 1.8 1 .3.2.5.3.8.5.9.5 1.2 1.5 1.2 2.5v27.1c1.3.7 2.5 1.5 3.8 2.2v-2c-1.3-.2-2.5-1-2.5-2.5zm-2.8 28.7c-6.6-3.8-13.2-7.6-19.8-11.5-.9.5-1.8 1-2.7 1.6-6.6 3.8-13.2 7.6-19.9 11.5v26c.1 0 .1.1.2.1.8.4 1.5.9 2.3 1.3 3.2 1.8 6.3 3.7 9.5 5.5 3.7 2.1 7.4 4.3 11 6.4.3.2.5.3.8.5.9.5 1.2 1.5 1.2 2.5v27.1c.9.5 1.8 1 2.7 1.6 6.6 3.8 13.2 7.6 19.8 11.5v-2c-.4 0-.8-.1-1.2-.3-6.3-3.6-12.5-7.2-18.8-10.8-.7-.4-1.2-1.2-1.2-2.1V99.1c-.9-.5-1.8-1-2.7-1.6-6.2-3.6-12.3-7.1-18.5-10.7-.2-.1-.4-.2-.6-.4-1.3-.7-3.2-1.5-3.2-3.2V61.5c0-.9.5-1.7 1.2-2.1 1.8-1 3.6-2.1 5.4-3.1 4.1-2.4 8.2-4.7 12.3-7.1.3-.2.7-.4 1-.6.9-.5 1.9-.3 2.8.2l3.6 2.1c6.6 3.8 13.2 7.6 19.8 11.5v-2c-.5 0-1-.2-1.5-.5-1-.9-2.2-1.6-3.5-2.3zm2-13.4c-3.5-2-7-4-10.5-6.1-.7-.4-1.2-1.2-1.2-2.1V8.6c-.9-.5-1.8-1-2.7-1.6-4.1-2.4-8.1-4.7-12.2-7.1h-2.7c1.1.6 2.2 1.2 3.2 1.9 3.7 2.1 7.4 4.3 11 6.4.3.2.5.3.8.5.9.5 1.2 1.5 1.2 2.5v27.1c5.4 3.1 10.9 6.3 16.3 9.4v-2c-.5 0-.9-.1-1.4-.4-.6-.3-1.2-.7-1.8-1.1z"/><path class="st1" d="M27.4 19v22.9c4 2.3 7.9 4.6 11.9 6.9 3.7 2.1 7.4 4.3 11 6.4.3.2.5.3.8.5.9.5 1.2 1.5 1.2 2.5v27.1c.8.5 1.6.9 2.4 1.4.1.1.2.1.3.2 6.6 3.8 13.2 7.6 19.8 11.5.9-.5 1.8-1 2.7-1.6 5.8-3.4 11.6-6.7 17.4-10.1.2-.1.4-.2.6-.4.6-.4 1.2-.7 1.8-1.1V57.8c0-1.7 1.4-2.3 2.6-3 3.9-2.3 7.8-4.5 11.8-6.8 3.6-2.1 7.1-4.1 10.7-6.2v-26c-.9-.5-1.8-1-2.7-1.6-6.6-3.8-13.2-7.6-19.8-11.5C95.9 5 92 7.3 88 9.6c-3.7 2.1-7.4 4.3-11 6.4-.3.2-.5.3-.8.5-.9.5-1.9.3-2.8-.2l-3.6-2.1L50 2.8c-.9.5-1.8 1-2.7 1.6-6.6 3.8-13.2 7.6-19.9 11.4V19zm1.4 13.8V18c0-1.3.8-1.9 1.8-2.4 1.6-.9 3.2-1.9 4.8-2.8 4.1-2.4 8.2-4.7 12.3-7.1.3-.2.7-.4 1-.6.9-.5 1.9-.3 2.8.2 1.2.7 2.5 1.4 3.7 2.1L75 18.8c.9-.5 1.8-1 2.7-1.6 7-4.1 14-8.1 21.1-12.2.4-.2.8-.3 1.2-.3h.1c.4 0 .8.1 1.2.3 2 1.1 4 2.3 5.9 3.4l12 6.9c.3.2.5.3.8.5 1.1.6 1.2 1.7 1.2 2.8v21c0 1.1-.6 1.8-1.5 2.3l-3.6 2.1c-6.6 3.8-13.2 7.6-19.9 11.5v27.4c0 .9-.5 1.7-1.2 2.1-.9.5-1.7 1-2.6 1.5-5.4 3.1-10.8 6.2-16.1 9.3-.8.4-1.7.4-2.5 0-5.4-3.1-10.8-6.2-16.1-9.3-.9-.5-1.7-1-2.6-1.5-.7-.4-1.2-1.2-1.2-2.1V55.5c-.9-.5-1.8-1-2.7-1.6-7-4.1-14-8.1-21.1-12.2-.7-.4-1.2-1.2-1.2-2.1-.1-2.2-.1-4.5-.1-6.8z"/><path class="st1" d="M22.6 41.9V14.4c0-1.1.6-1.8 1.5-2.3l3.6-2.1c5.8-3.3 11.6-6.6 17.4-10h-2.7c-.4.3-.9.5-1.3.8-6.6 3.8-13.2 7.6-19.9 11.5v27.4c0 .9-.5 1.7-1.2 2.1l-9.9 5.7-6.3 3.6c-1.1.6-2.4 1.7-3.7 1.7v2c.9-.5 1.8-1 2.7-1.6 6.5-3.7 13.1-7.5 19.8-11.3z"/><path class="st1" d="M56.7 51.5c.3.2.5.3.8.5.9.5 1.2 1.5 1.2 2.5v27.1c2.9 1.7 5.8 3.3 8.7 5 2.5 1.5 5.1 2.9 7.6 4.4 2.5-1.5 5.1-2.9 7.6-4.4 2.9-1.7 5.8-3.3 8.7-5V54.1c0-1.1.6-1.8 1.5-2.3l3.6-2.1c6.6-3.8 13.2-7.6 19.9-11.5V19.4c-5.4-3.1-10.9-6.3-16.3-9.4-4 2.3-7.9 4.6-11.9 6.9-3.7 2.1-7.4 4.3-11 6.4-.3.2-.5.3-.8.5-.9.5-1.9.3-2.8-.2l-3.6-2.1C63.2 17.7 56.6 13.8 50 10c-5.4 3.1-10.9 6.3-16.3 9.4v18.8c4 2.3 7.9 4.6 11.9 6.9 3.7 2.2 7.4 4.3 11.1 6.4zM35.1 36.1v-13c0-1.3-.1-2.7 1.3-3.6 3.6-2.1 7.3-4.2 10.9-6.3.5-.3 1-.6 1.5-.8.9-.5 1.9-.4 2.8.1l3.6 2.1c6.6 3.8 13.2 7.6 19.8 11.5.9-.5 1.8-1 2.7-1.6 7-4.1 14-8.1 21.1-12.2.4-.2.8-.3 1.2-.3.4 0 .8.1 1.2.3 2.3 1.3 4.6 2.7 6.9 4 1.8 1 3.5 2 5.3 3 .9.5 1.5 1.4 1.5 2.5V36c0 .9-.5 1.7-1.2 2.1-1.3.8-2.6 1.5-3.9 2.3-6.6 3.8-13.2 7.6-19.9 11.5v27.4c0 .9-.5 1.7-1.2 2.1-2.3 1.3-4.6 2.7-6.9 4-.6.4-1.3.7-1.9 1.1l-3.6 2.1c-.8.4-1.7.4-2.5 0l-3.6-2.1c-3-1.7-5.9-3.4-8.9-5.1-.7-.4-1.2-1.2-1.2-2.1V51.9c-.9-.5-1.8-1-2.7-1.6-7-4.1-14-8.1-21.1-12.2-.8-.3-1.2-1.2-1.2-2z"/><path class="st1" d="M75 11.6c.9-.5 1.8-1 2.7-1.6 5.8-3.3 11.6-6.6 17.4-10h-2.7L76.2 9.3c-.8.4-1.7.4-2.5 0C68.4 6.2 63 3.1 57.6 0h-2.7c.1.1.2.1.3.2L75 11.6zm69.8 67.6c-6.6-3.8-13.2-7.6-19.8-11.5-1.3.7-2.5 1.5-3.8 2.2v4.4c4 2.3 7.9 4.6 11.9 6.9 3.1 1.8 6.2 3.6 9.3 5.3.6.3 1.2.7 1.8 1 .3.2.5.3.8.5.9.5 1.2 1.5 1.2 2.5v27.1c1.3.7 2.5 1.5 3.8 2.2v-2c-1.2 0-2.4-.8-2.4-2.4V88c-.8-.5-1.6-.9-2.4-1.4-.1-.1-.2-.1-.3-.2-7-4.1-14-8.1-21.1-12.2-.9-.5-1.2-1.2-1.2-2 0-1.6 1.8-3.3 3.6-2.2 1.3.8 2.6 1.5 3.9 2.3 6.6 3.8 13.2 7.6 19.8 11.5v-2c-.4 0-.9-.1-1.2-.3-1.2-.8-2.6-1.5-3.9-2.3zm4-26.6c-6.3-3.6-12.5-7.2-18.8-10.8-.7-.4-1.2-1.2-1.2-2.1V12.3c-.9-.5-1.8-1-2.7-1.6-6.2-3.6-12.3-7.1-18.5-10.7h-2.7c3.2 1.8 6.3 3.7 9.5 5.5 3.7 2.1 7.4 4.3 11 6.4.3.2.5.3.8.5.9.5 1.2 1.5 1.2 2.5V42c.9.5 1.8 1 2.7 1.6 6.6 3.8 13.2 7.6 19.8 11.5v-2c-.3-.2-.7-.2-1.1-.5z"/><path class="st1" d="M82.6 0h-2.7l-3.6 2.1c-.8.4-1.7.4-2.5 0L70.2 0h-2.7c2.5 1.5 5.1 2.9 7.6 4.4 2.4-1.5 5-2.9 7.5-4.4zm62.2 64.8c-6.6-3.8-13.2-7.6-19.8-11.5-5.4 3.1-10.9 6.3-16.3 9.4v18.8c2.9 1.7 5.8 3.3 8.7 5 1.1.6 2.2 1.2 3.2 1.9 3.7 2.1 7.4 4.3 11 6.4.3.2.5.3.8.5.9.5 1.2 1.5 1.2 2.5v27.1c5.4 3.1 10.9 6.3 16.3 9.4v-2c-.5 0-.9-.1-1.4-.4-.6-.4-1.2-.7-1.8-1.1-3.5-2-7-4-10.5-6.1-.7-.4-1.2-1.2-1.2-2.1V95.2c-.9-.5-1.8-1-2.7-1.6-4.1-2.4-8.1-4.7-12.2-7.1-1.8-1-3.6-2.1-5.4-3.1-1.1-.6-2.2-1.3-3.3-1.9-1.7-1-1.4-2.9-1.4-4.5V64.9c0-.9.5-1.7 1.2-2.1h.1c3.6-2.1 7.3-4.2 10.9-6.3.5-.3 1-.6 1.5-.8.9-.5 1.9-.4 2.8.1l3.6 2.1c6.6 3.8 13.2 7.6 19.8 11.5v-2c-.5 0-1-.2-1.5-.5-1.1-.7-2.3-1.4-3.6-2.1z"/><path class="st1" d="M144.8 72c-6.6-3.8-13.2-7.6-19.8-11.5-3.4 1.9-6.7 3.9-10.1 5.8v11.6c4 2.3 7.9 4.6 11.9 6.9 1 .6 2 1.2 3 1.7 3 1.7 5.9 3.4 8.9 5.1.7.4 1.2 1.2 1.2 2.1v27.4c3.4 1.9 6.7 3.9 10.1 5.8v-2c-.8 0-1.5-.5-2.1-.9-.7-.4-1.4-.8-2.2-1.2-1.1-.6-2.1-1.2-3.2-1.8-.7-.4-1.2-1.2-1.2-2.1V91.5c-.9-.5-1.8-1-2.7-1.6-2-1.1-4-2.3-6-3.4-4-2.3-8.1-4.6-12.1-7-1-.6-2-1.1-3-1.7-1.1-.6-1.3-1.7-1.3-2.9v-6.4c0-1.5 1.1-2.1 2.2-2.8 1.7-1 3.5-2 5.2-3 .8-.4 1.7-.4 2.5 0 1.3.8 2.6 1.5 3.9 2.3 6.6 3.8 13.2 7.6 19.8 11.5v-2c-.4 0-.9-.1-1.2-.3-1.1-.7-2.5-1.4-3.8-2.2zM70 44.8c.9.5 1.2 1.5 1.2 2.5v27.1c1.3.7 2.5 1.5 3.8 2.2 1.3-.7 2.5-1.5 3.8-2.2V47c0-.9.5-1.7 1.2-2.1 1.3-.8 2.6-1.5 3.9-2.3 6.6-3.8 13.2-7.6 19.9-11.5v-4.4c-1.3-.7-2.5-1.5-3.8-2.2-.9.5-1.8 1-2.7 1.6-7 4.1-14 8.1-21.1 12.2-.8.4-1.7.4-2.5 0-1.3-.8-2.6-1.5-3.9-2.3-6.6-3.8-13.2-7.6-19.8-11.5-1.3.7-2.5 1.5-3.8 2.2v4.4c4 2.3 7.9 4.6 11.9 6.9 3.7 2.1 7.4 4.3 11 6.4.3.1.6.2.9.4zM48.8 31c-1.3-.7-1.4-2.1-.9-3.1.6-1.2 1.9-2 3.4-1.1 1.3.8 2.6 1.5 3.9 2.3 6.6 3.8 13.2 7.6 19.8 11.5.9-.5 1.8-1 2.7-1.6.6-.3 1.2-.7 1.8-1 6.4-3.7 12.9-7.4 19.3-11.1 2.5-1.4 4.7 1.9 3.1 3.7-.2.2-.4.4-.6.5-1.3.8-2.6 1.5-3.9 2.3-4.9 2.8-9.8 5.7-14.8 8.5-1.7 1-3.4 2-5.1 2.9v27.4c0 2.8-4 3.1-4.8.8-.1-.2-.1-.5-.1-.8V44.8c-.9-.5-1.8-1-2.7-1.6C62.8 39.1 55.8 35 48.8 31z"/><path class="st1" d="M64.9 50.5v27.4c3.4 1.9 6.7 3.9 10.1 5.8 3.4-1.9 6.7-3.9 10.1-5.8V50.4c0-1.1.6-1.8 1.5-2.3l3.6-2.1c6.6-3.8 13.2-7.6 19.9-11.5V22.9c-3.4-1.9-6.7-3.9-10.1-5.8-4 2.3-7.9 4.6-11.9 6.9-3.7 2.1-7.4 4.3-11 6.4-.3.2-.5.3-.8.5-.9.5-1.9.3-2.8-.2l-3.6-2.1c-6.6-3.8-13.2-7.6-19.8-11.5C46.7 19 43.4 21 40 22.9v11.6c.9.5 1.8 1 2.7 1.6 7 4.1 14 8.1 21.1 12.2.7.5 1.1 1.4 1.1 2.2zM42.5 34.6c-.7-.4-1.2-1.2-1.2-2.1v-6.3c0-.7-.1-1.5.3-2.2.4-.7 1.1-1 1.8-1.4.7-.4 1.4-.8 2.2-1.2 1.1-.6 2.1-1.2 3.2-1.8.8-.4 1.7-.4 2.5 0 1.3.8 2.6 1.5 3.9 2.3 6.6 3.8 13.2 7.6 19.8 11.5.9-.5 1.8-1 2.7-1.6 7-4.1 14-8.1 21.1-12.2.4-.2.8-.3 1.2-.3h.1c.4 0 .8.1 1.2.3.1.1.2.1.3.2l5.7 3.3c.8.5 1.5 1.2 1.5 2.3v7.1c0 1.1-.6 1.8-1.5 2.3l-3.6 2.1c-6.6 3.8-13.2 7.6-19.9 11.5v27.4c0 .9-.5 1.7-1.2 2.1-1.1.6-2.2 1.3-3.3 1.9L77.2 81c-.6.4-1.3.8-2 .8-.8 0-1.5-.5-2.1-.9-.7-.4-1.4-.8-2.2-1.2-1.1-.6-2.1-1.2-3.2-1.8-.7-.4-1.2-1.2-1.2-2.1V48.4c-.9-.5-1.8-1-2.7-1.6-7.2-4.1-14.3-8.2-21.3-12.2zM3.8 27.9V3.6c0-.9.5-1.7 1.2-2.1C5.9 1 6.8.5 7.6 0H4.9c-.8.5-1.6.9-2.5 1.4v27.4c0 .4-.1.7-.2 1-.4.9-1.3 1.3-2.2 1.3v2c1.3-.7 2.5-1.5 3.8-2.2v-3z"/>
</symbol>
<symbol id="pattern-3" viewBox="0 0 100 100"><style>.st0{fill:none}</style><pattern width="864" height="864" patternUnits="userSpaceOnUse" id="New_Pattern_2" overflow="visible"><path class="st0" d="M0-864h864V0H0z"/><image width="3600" height="3600" xlink:href="../../../../../../Pictures/GRAPHICS/patterns/Black-White-Modern-Digital-Papers/8.jpg" transform="matrix(.24 0 0 .24 0 -864)" overflow="visible"/></pattern><pattern width="864" height="864" patternUnits="userSpaceOnUse" id="New_Pattern_4" overflow="visible"><path class="st0" d="M0-864h864V0H0z"/><image width="3600" height="3600" xlink:href="../../../../../../Pictures/GRAPHICS/patterns/Black-White-Modern-Digital-Papers/8.jpg" transform="matrix(.24 0 0 .24 0 -864)" overflow="visible"/></pattern><g id="orange"><path d="M0 0h100v100H0z" fill-rule="evenodd" clip-rule="evenodd" fill="#f38b00"/><pattern id="SVGID_2_" xlink:href="#New_Pattern_4" patternTransform="matrix(.2551 0 0 .4237 -5939.286 -4969.508)"/><path d="M0 0h100v100H0z" opacity=".1" fill="url(#SVGID_2_)"/></g>
</symbol>
<symbol id="planned-giving-graphic" viewBox="0 0 200 200"><circle cx="100" cy="100" r="98" fill="#414042"/><path d="M25.8 59.6c-.3-10 14.9-13 15 .7v39.4c0 3.1.2 2.6 1.7 4.3 0 0 15.4 19.4 16.6 21.1 1.2 1.7 8.3 1.6 4.8-4.1 0 0-7.1-9.7-12.1-18.7s4.8-17.5 13.1-7.3c0 0 18 22.3 21.1 26.4 3.1 4.1 4.5 15.4 4.5 21.1v34.9H51.3v-16.1s-21.3-26.8-24.4-34c-3.1-7.3-1.5-11.2-1-13 1.2-4.3-.1-54.7-.1-54.7zm148.4 0c.3-10-14.9-13-15 .7v39.4c0 3.1-.2 2.6-1.7 4.3 0 0-15.4 19.4-16.6 21.1-1.2 1.7-8.3 1.6-4.8-4.1 0 0 7.1-9.7 12.1-18.7s-4.8-17.5-13.1-7.3c0 0-18 22.3-21.1 26.4-3.1 4.1-4.5 15.4-4.5 21.1v34.9h39.2v-16.1s21.3-26.8 24.4-34c3.1-7.3 1.5-11.2 1-13-1.2-4.3.1-54.7.1-54.7z" fill="#fff"/>
</symbol>
<symbol id="quote" viewBox="0 0 50 50"><path d="M20.6 15.1c-2.9.4-8.3 2.3-8.3 5.9 0 1.5.3 1.9 1.1 1.9.5 0 1.1-.2 2-.2 3.7 0 7.1 3.1 7.1 7.7 0 4.1-3 7.9-8.5 7.9-6 0-9.1-4.1-9.1-10.2 0-9.4 6.3-15.1 15.3-16.5l.4 3.5zm22.6 0c-2.9.4-8.3 2.3-8.3 5.9 0 1.5.3 1.9 1.1 1.9.5 0 1.1-.2 2-.2 3.7 0 7.1 3.1 7.1 7.7 0 4.1-3 7.9-8.5 7.9-6 0-9.1-4.1-9.1-10.2 0-9.4 6.3-15.1 15.3-16.5l.4 3.5z"/>
</symbol>
<symbol id="safe-abortion-type-art" viewBox="0 0 566 120"><path d="M30.3 19.6c-1.9-2.7-5.3-3.9-8.7-3.9-4.1 0-8.1 1.8-8.1 6.4C13.5 32 37 26.3 37 43.9c0 10.6-8.4 15.8-18.1 15.8-6.2 0-12.2-1.9-16.2-6.7l6.7-6.4c2.2 3.3 5.9 5.2 9.8 5.2 4.1 0 8.7-2.2 8.7-6.8 0-10.9-23.5-4.6-23.5-22.3 0-10.2 9.1-15 18.3-15 5.2 0 10.4 1.5 14.2 5.1l-6.6 6.8zM62.2 8.9h7.6l21.4 49.6H81.1l-4.6-11.3H55l-4.5 11.3h-9.9L62.2 8.9zm11.2 30.7l-7.6-20.2L58 39.6h15.4zM96.7 8.9h32v8h-23.2v13h21.8v8h-21.8v20.6h-8.8V8.9zm40.2 0h32.8v8h-24v12.2h22.8v8h-22.8v13.4H171v8h-34.1V8.9zm79.5 0h7.6l21.4 49.6h-10.1l-4.6-11.3h-21.5l-4.5 11.3h-9.9l21.6-49.6zm11.2 30.7L220 19.4l-7.8 20.2h15.4zm23.3-30.7h19.3c7.5 0 15.2 3.4 15.2 12.5 0 5.6-3.5 9.3-8.6 10.9v.1c6.2.7 10.7 5.6 10.7 12 0 10.8-9.4 14.1-18.8 14.1h-17.9V8.9zm8.8 20.2h8.1c5.9 0 8.8-2.5 8.8-6.2 0-4.3-2.9-6.4-9.6-6.4h-7.3v12.6zm0 21.8h8.1c4.5 0 10.9-.8 10.9-7.3 0-5.2-3.4-7-10.5-7h-8.5v14.3zm60.1-43.2c15.5-.3 26.4 10.1 26.4 26 0 15.5-10.9 25.8-26.4 26.1-15.3 0-26.2-10.4-26.2-25.8 0-16 10.9-26.3 26.2-26.3zm.1 44.1c10.3 0 17.1-7.8 17.1-18.4 0-9.9-6.8-17.7-17.1-17.7-10.2 0-17 7.8-17 17.7-.1 10.5 6.7 18.4 17 18.4zm34.7-42.9h17.2c9.5 0 18.5 3.1 18.5 14.2 0 7.1-4.1 12.4-11.5 13.4l13.2 22h-10.6l-11.5-21h-6.4v21h-8.8V8.9zm15.7 21c5 0 10.8-.4 10.8-6.9 0-5.9-5.5-6.6-10-6.6h-7.6v13.4h6.8zm37.3-13h-15.2v-8h39.2v8h-15.2v41.6h-8.8V16.9zm29.8-8h8.8v49.6h-8.8V8.9zm43.2-1.2c15.4-.3 26.4 10.1 26.4 26 0 15.5-10.9 25.8-26.4 26.1-15.3 0-26.2-10.4-26.2-25.8 0-16 10.9-26.3 26.2-26.3zm0 44.1c10.3 0 17.1-7.8 17.1-18.4 0-9.9-6.8-17.7-17.1-17.7-10.2 0-17 7.8-17 17.7 0 10.5 6.8 18.4 17 18.4zm34.8-42.9h11.7l24 36.8h.1V8.9h8.8v49.6h-11.2l-24.5-38h-.1v38h-8.8V8.9zM23 79.3c-1.4-1.9-3.8-2.8-6.2-2.8-2.9 0-5.8 1.3-5.8 4.5 0 7.1 16.8 3.1 16.8 15.7 0 7.6-6 11.3-13 11.3-4.4 0-8.7-1.4-11.6-4.8L8 98.6c1.6 2.4 4.2 3.7 7 3.7 2.9 0 6.2-1.6 6.2-4.8 0-7.8-16.8-3.3-16.8-16 0-7.3 6.5-10.7 13.1-10.7 3.7 0 7.4 1 10.2 3.6L23 79.3zm22.5-7.6H51l15.3 35.4H59L55.7 99H40.4l-3.2 8.1h-7.1l15.4-35.4zm8 21.9L48 79.2l-5.6 14.4h11.1zm9.2-21.9H70l9.7 26.8 10-26.8h6.8L82 107.1h-5.5L62.7 71.7zm37.1 0h23.5v5.7h-17.2v8.7h16.3v5.7h-16.3v9.6h18.1v5.7H99.8V71.7zm47.6 7.6c-1.4-1.9-3.8-2.8-6.2-2.8-2.9 0-5.8 1.3-5.8 4.5 0 7.1 16.8 3.1 16.8 15.7 0 7.6-6 11.3-13 11.3-4.4 0-8.7-1.4-11.6-4.8l4.8-4.6c1.6 2.4 4.2 3.7 7 3.7 2.9 0 6.2-1.6 6.2-4.8 0-7.8-16.8-3.3-16.8-16 0-7.3 6.5-10.7 13.1-10.7 3.7 0 7.4 1 10.2 3.6l-4.7 4.9zm21.6-7.6h6.9l6.7 25.5h.1l8-25.5h6.2l7.8 25.5h.1l7-25.5h6.4l-10.3 35.4h-6l-8.2-27h-.1l-8.2 27h-5.8L169 71.7zm69.5-.9c11.1-.2 18.9 7.2 18.9 18.6 0 11.1-7.8 18.5-18.9 18.7-10.9 0-18.7-7.4-18.7-18.5 0-11.4 7.8-18.8 18.7-18.8zm.1 31.5c7.3 0 12.2-5.6 12.2-13.2 0-7.1-4.9-12.7-12.2-12.7-7.3 0-12.2 5.6-12.2 12.7 0 7.6 4.9 13.2 12.2 13.2zm24.6-30.6h9.6l9.5 24.8 9.6-24.8h9.5v35.4h-6V77.7h-.1l-10.8 29.4h-4.4l-10.8-29.4h-.1v29.4h-6V71.7zm45.9 0h23.5v5.7h-17.2v8.7h16.3v5.7h-16.3v9.6h18.1v5.7h-24.4V71.7zm30.2 0h8.4L364.8 98h.1V71.7h6.3v35.4h-8l-17.5-27.2h-.1v27.2h-6.3V71.7zm39.5 9.7c1.5-.2 4.2-1.2 4.2-3 0-.8-.2-1-.5-1-.2 0-.6.1-1 .1-1.9 0-3.6-1.5-3.6-3.8 0-2.1 1.5-4 4.2-4 3 0 4.6 2 4.6 5.1 0 4.7-3.2 7.6-7.7 8.3l-.2-1.7zm31.9-2.1c-1.4-1.9-3.8-2.8-6.2-2.8-2.9 0-5.8 1.3-5.8 4.5 0 7.1 16.8 3.1 16.8 15.7 0 7.6-6 11.3-13 11.3-4.4 0-8.7-1.4-11.6-4.8l4.8-4.6c1.5 2.4 4.2 3.7 7 3.7 2.9 0 6.2-1.6 6.2-4.8 0-7.8-16.8-3.3-16.8-16 0-7.3 6.5-10.7 13.1-10.7 3.7 0 7.4 1 10.2 3.6l-4.7 4.9zm25.5-7.6h6.3v29.7h15.1v5.7h-21.4V71.7zm25.5 0h6.3v35.4h-6.3V71.7zm9.7 0h7.3l9.7 26.8 10-26.8h6.8l-14.3 35.4h-5.5l-14-35.4zm37.1 0H532v5.7h-17.2v8.7h16.3v5.7h-16.3v9.6h18.1v5.7h-24.4V71.7zm47.6 7.6c-1.4-1.9-3.8-2.8-6.2-2.8-2.9 0-5.8 1.3-5.8 4.5 0 7.1 16.8 3.1 16.8 15.7 0 7.6-6 11.3-13 11.3-4.4 0-8.7-1.4-11.6-4.8l4.8-4.6c1.5 2.4 4.2 3.7 7 3.7 2.9 0 6.2-1.6 6.2-4.8 0-7.8-16.8-3.3-16.8-16 0-7.3 6.5-10.7 13.1-10.7 3.7 0 7.4 1 10.2 3.6l-4.7 4.9z" fill="#00afdb"/>
</symbol>
<symbol id="safe-care" viewBox="0 0 75 60"><style>.st1{fill:#fff}</style><g opacity=".6"><path class="st1" d="M43.4 6.1C42 7.6 40.5 9 39.1 10.5l3.4 3.4 2.4 2.4c1.5 1.5 1.9 3.4 1.1 5.3-.8 1.9-2.7 3.2-4.6 3.2-.8 0-1.6-.2-2.3-.6l-9.7 9.7-7.1 7.1c-3 3 1.5 7.5 4.5 4.5l6.8-6.8.2-.2.1-.1 9.7-9.7 2.3 2.3-9.7 9.7-.3.3-6.8 6.8c-3 3 1.5 7.5 4.5 4.5l6.8-6.8.3-.3 9.7-9.7 2.3 2.3-9.7 9.7-.3.3-6.8 6.8c-3 3 1.5 7.5 4.5 4.5l6.8-6.8 21.1-21.1.1-.1c16.5-16.7-8.4-41.6-25-25z"/><path class="st1" d="M32.6 18L14.4 36.2c-.2 2.5 3.1 4.8 5.5 2.5l6.8-6.8 9.9-9.9-.9-.9-3.1-3.1z"/><path class="st1" d="M43.6 17.5l-7.1-7.1-4.9-4.9C27.7 1.6 23.4 0 19.3 0 5.7 0-6 17.6 6.7 30.4l5.5 5.5 20.4-20.4 6.4 6.4c.7.7 1.5 1 2.2 1 2.6.1 4.7-3.1 2.4-5.4z"/></g>
</symbol>
<symbol id="search" viewBox="0 0 100 125"><path d="M79.2 72.3L62.9 56.7c6.3-9.1 5.3-21.7-2.8-29.9-9.2-9.2-24-9.2-33.2 0-9.2 9.2-9.2 24 0 33.2 8.1 8.1 20.7 9.1 29.9 2.8l15.6 16.4c1 1 2.6 1 3.6 0l3.4-3.4c.9-.9.8-2.5-.2-3.5zM56 56c-6.9 6.9-18.1 6.9-25 0s-7-18.1 0-25 18.1-6.9 25 0 6.9 18.1 0 25z"/>
</symbol>
<symbol id="tweet-this" viewBox="0 0 20 20"><path d="M10 0C4.5 0 0 4.5 0 10s4.5 10 10 10 10-4.5 10-10S15.5 0 10 0zm6.4 6.7v.4c0 4.4-3.3 9.4-9.4 9.4-1.9 0-3.6-.5-5.1-1.5h.8c1.6 0 3-.5 4.1-1.4-1.4 0-2.7-1-3.1-2.3.2 0 .4.1.6.1.3 0 .6 0 .9-.1-1.5-.3-2.6-1.6-2.6-3.2.4.2 1 .4 1.5.4-.9-.6-1.5-1.6-1.5-2.8 0-.6.2-1.2.4-1.7 1.6 2 4.1 3.3 6.8 3.5v-.7c0-1.8 1.5-3.3 3.3-3.3 1 0 1.8.4 2.4 1 .8-.1 1.5-.4 2.1-.8-.2.8-.8 1.4-1.5 1.8.7-.1 1.3-.3 1.9-.5-.4.7-.9 1.2-1.6 1.7z"/>
</symbol>
<symbol id="twitter" viewBox="0 0 25 20.3"><path d="M25 2.4c-.9.4-1.9.7-2.9.8 1.1-.6 1.9-1.6 2.3-2.8-1 .6-2.1 1-3.3 1.2-.9-1-2.3-1.6-3.7-1.6-2.8 0-5.1 2.3-5.1 5.1 0 .4 0 .8.1 1.2C8.1 6.1 4.3 4 1.7.9c-.4.8-.7 1.7-.7 2.6 0 1.8 1 3.4 2.3 4.3-.8 0-1.6-.3-2.3-.7v.1c0 2.5 1.8 4.6 4.1 5-.4.1-.9.2-1.4.2-.3 0-.7 0-1-.1.7 2 2.5 3.5 4.8 3.6-1.8 1.4-4 2.2-6.4 2.2-.4 0-.8 0-1.2-.1 2.3 1.5 5 2.3 7.9 2.3 9.4 0 14.6-7.8 14.6-14.6V5c1-.7 1.9-1.6 2.6-2.6z"/>
</symbol>
<symbol id="valued-partner" viewBox="0 0 150 150"><style>.st1{fill:#fff}</style><path d="M0 0h150v150H0z" fill="#00a94f"/><g id="hands_5_"><path class="st1" d="M85.3 114.5c-1.2-.8-2.8-1.8-5.1-3.2-2.3 4.6-3.6 7-3.6 7l4.4 2.8s2.6 1.6 4.7-1.6c0 0 2.1-3.4-.4-5z"/><path class="st1" d="M105.7 92.4c-1.5-1-21.8-13.6-21.8-13.6L79 87.9s-3.4 4.6-9.2 1.9c-5.2-3.6-3.4-8.3-3.4-8.3s7.6-14.8 8.9-17.2H50.8L-1 34.3l.1 36.8 41.7 25.4s4.7-9 4.9-9.2c.6-.8 2.5-2.9 6.2-1.5.4.1.8.3 1.2.5 1.3.8 2.1 1.6 2.5 2.3.4.7.6 1.4.6 2 1-.6 2.6-1 4.7-.1.4.1.8.3 1.2.5 0 0 1.2.6 2 1.7.7.9 1 1.7 1 2.5 1.2-.7 3-1.1 5.6.3 2.6 1.4 3.3 3 3.3 4.4 1.2-.7 3-1 5.5.3 5.1 2.7 2.8 6.7 2.8 6.7l-.3.6c-.4 1-.8 1.7-.8 1.8l-.1.1c.6.4 7.7 4.9 7.7 4.9s2.6 1.6 4.7-1.6c0 0 2.1-3.4-.4-5-2-1.3-10.6-6.8-10.6-6.8s-.3-1.6 1.4-1.4l11.4 7.2s2.6 1.6 4.7-1.6c0 0 2.1-3.4-.4-5s-14.1-9-14.1-9-.3-1.8 1.4-1.4c.8.5 14.5 9.3 14.5 9.3s2.6 1.6 4.7-1.6c.1-.1 2.1-3.4-.4-5z"/><path d="M94.5 64.3H81.1c-3.3-.2-4.5 1.8-4.5 1.8l-7.9 15.4s-2.4 4 2 6.4c5 2.6 7.3-1.7 7.3-1.7s2.7-5.4 5.2-10.2l23.9 15.2 54.6-27.3V28.5L94.5 64.3zM51.7 88.6c-3.5-1.9-5 .9-5 .9l-5.5 10.6s-1.6 2.7 2 4.6c3.5 1.8 5-1 5-1l5.4-10.5s1.6-2.8-1.9-4.6zm8.9 4.6c-3.5-1.9-5 .9-5 .9l-5.5 10.6s-1.6 2.7 2 4.6c3.5 1.8 5-1 5-1l5.4-10.5s1.6-2.8-1.9-4.6zm8.7 4.6c-3.5-1.9-5 .9-5 .9l-5.5 10.6s-1.6 2.7 2 4.6c3.5 1.8 5-1 5-1l5.4-10.5c.1 0 1.7-2.7-1.9-4.6zm9 4.6c-3.5-1.9-5 .9-5 .9l-5.5 10.6s-1.6 2.7 2 4.6c3.5 1.8 5-1 5-1l5.4-10.5s1.6-2.8-1.9-4.6z" opacity=".8" fill="#fff"/></g>
</symbol>
<symbol id="women-in-control" viewBox="0 0 150 150"><path d="M0 0h150v150H0z" fill="#00ac9a"/><path d="M75 35.5c-19.2 0-34.8 15.6-34.8 34.8 0 8.2 2.8 15.7 7.5 21.6-2.2 17-6.7 28.2-6.7 28.2s7.5-10 24.1-16.4c3.2.9 6.5 1.5 10 1.5 19.2 0 34.8-15.6 34.8-34.8S94.2 35.5 75 35.5zm-3.6 10.9c1-1 2.3-1.5 3.7-1.5 1.4 0 2.7.5 3.7 1.5s1.5 2.3 1.5 3.7c0 1.5-.5 2.7-1.5 3.7s-2.3 1.5-3.7 1.5c-1.5 0-2.7-.5-3.7-1.5s-1.5-2.3-1.5-3.7c0-1.4.5-2.7 1.5-3.7zm11.7 45.4H66.9v-1.6c1.2-.2 2-.5 2.5-.9.7-.6 1-1.7 1-3.2v-20c0-1.4-.2-2.3-.7-2.8-.5-.5-1.4-.9-2.8-1.1v-1.6h13v25.8c0 1.5.2 2.4.7 2.9.4.4 1.3.8 2.5 1v1.5z" fill="#fff"/>
</symbol></svg>